<svg xmlns="http://www.w3.org/2000/svg" xmlns:xlink="http://www.w3.org/1999/xlink" viewBox="0 0 375 478"><defs><mask id="mask" x="202.03" y="347.48" width="95.09" height="95.09" maskUnits="userSpaceOnUse"><g id="mask-2"><path id="path-1" d="M274.84,354.76a47.54,47.54,0,0,0-65.54,15h0a47.54,47.54,0,0,0,15,65.53h0a47.54,47.54,0,0,0,65.54-15h0a47.54,47.54,0,0,0-15-65.53Z" style="fill:#fff;fill-rule:evenodd"/></g></mask><mask id="mask-2-2" x="219.5" y="349.1" width="95.09" height="95.09" maskUnits="userSpaceOnUse"><g id="mask-2-3" data-name="mask-2"><path id="path-1-2" data-name="path-1" d="M260.74,349.52A47.54,47.54,0,0,0,219.93,403h0a47.55,47.55,0,0,0,53.43,40.81h0a47.54,47.54,0,0,0,40.8-53.43h0a47.53,47.53,0,0,0-53.42-40.81Z" style="fill:#fff;fill-rule:evenodd"/></g></mask><mask id="mask-4" x="183.43" y="346.26" width="95.09" height="95.09" maskUnits="userSpaceOnUse"><g id="mask-2-5" data-name="mask-2"><path id="path-1-4" data-name="path-1" d="M222.1,347.11a47.52,47.52,0,0,0-37.82,55.57h0a47.53,47.53,0,0,0,55.58,37.83h0a47.54,47.54,0,0,0,37.82-55.58h0a47.53,47.53,0,0,0-55.58-37.82Z" style="fill:#fff;fill-rule:evenodd"/></g></mask></defs><title>Asset 14</title><g id="Layer_2" data-name="Layer 2"><g id="Layer_1-2" data-name="Layer 1"><path d="M123,36.18c4.62,2,21.76-6.35,19.12-10.87s-11.39-10.1-16.75-6.2S118.38,34.13,123,36.18Z" style="fill:#e6e6e6;fill-rule:evenodd;opacity:0.5"/><rect width="213" height="156" style="fill:none"/><polygon points="93.39 0 94.6 1.29 97.72 4.63 100.91 8.03 103.99 11.33 107.88 15.5 110.48 18.28 114.22 22.28 116.74 24.97 120.58 29.08 122.96 31.63 126.92 35.86 126.92 35.87 129.19 38.29 133.28 42.67 133.49 42.88 133.5 42.9 134.79 44.28 135.44 44.98 135.45 44.98 136.86 46.5 136.87 46.51 137.76 47.46 140.01 49.87 140.02 49.88 140.89 50.8 140.91 50.82 142.99 53.06 143 53.07 144.22 54.37 146.6 56.92 146.82 57.16 146.85 57.19 149.18 59.68 150.62 61.21 150.63 61.22 155.33 66.26 157.04 68.09 161.55 72.91 163.43 74.93 167.74 79.53 169.8 81.73 169.81 81.74 178.55 91.1 178.49 91.15 176.01 93.47 172.47 96.78 169.25 99.79 165.72 103.1 162.45 106.15 158.94 109.43 155.81 112.36 152.44 115.51 149.01 118.71 145.69 121.81 142.06 125.21 142 125.26 133.65 116.33 131.81 114.37 131.81 114.36 127.44 109.68 125.46 107.56 121.21 103.01 119.09 100.75 115 96.37 112.72 93.93 108.77 89.71 106.38 87.16 106.38 87.15 102.52 83.02 100.03 80.35 96.65 76.74 93.71 73.59 90.4 70.05 87.4 66.84 84.12 63.33 81.07 60.07 77.87 56.64 74.76 53.31 71.23 49.54 67.93 46.01 64.96 42.83 61.64 39.28 58.66 36.09 55.34 32.54 52.37 29.36 49.05 25.81 46.08 22.63 42.77 19.09 39.78 15.89 36.47 12.35 33.53 9.2 30.25 5.69 27.24 2.47 24.93 0 0 0 0 478 375 478 375 0 93.39 0" style="fill:none"/><polygon points="30.25 5.69 33.53 9.2 36.47 12.35 39.78 15.89 42.77 19.09 46.08 22.63 49.05 25.81 52.37 29.36 55.34 32.54 58.66 36.09 61.64 39.28 64.96 42.83 67.93 46.01 71.23 49.54 74.76 53.31 77.87 56.64 81.07 60.07 84.12 63.33 87.4 66.84 90.4 70.05 93.71 73.59 96.65 76.74 100.03 80.35 102.52 83.02 106.38 87.15 106.38 87.16 108.77 89.71 112.72 93.93 115 96.37 119.09 100.75 121.21 103.01 125.46 107.56 127.44 109.68 131.81 114.36 131.81 114.37 133.65 116.33 142 125.26 142.06 125.21 145.69 121.81 149.01 118.71 152.44 115.51 155.81 112.36 158.94 109.43 162.45 106.15 165.72 103.1 169.25 99.79 172.47 96.78 176.01 93.47 178.49 91.15 178.55 91.1 169.81 81.74 169.8 81.73 167.74 79.53 163.43 74.93 161.55 72.91 157.04 68.09 155.33 66.26 150.63 61.22 150.62 61.21 149.18 59.68 146.85 57.19 146.82 57.16 146.6 56.92 144.22 54.37 143 53.07 142.99 53.06 140.91 50.82 140.89 50.8 140.02 49.88 140.01 49.87 137.76 47.46 136.87 46.51 136.86 46.5 135.45 44.98 135.44 44.98 134.79 44.28 133.5 42.9 133.49 42.88 133.28 42.67 129.19 38.29 126.92 35.87 126.92 35.86 122.96 31.63 120.58 29.08 116.74 24.97 114.22 22.28 110.48 18.28 107.88 15.5 103.99 11.33 100.91 8.03 97.72 4.63 94.6 1.29 93.39 0 91.14 0 89.31 0 84.87 0 82.51 0 78.55 0 75.74 0 72.19 0 69.03 0 65.8 0 62.32 0 59.37 0 55.67 0 53.36 0 49.52 0 46.91 0 42.86 0 40.43 0 36.31 0 33.97 0 29.67 0 27.49 0 24.93 0 27.24 2.47 30.25 5.69" style="fill:#474b50"/><g style="opacity:0.5"><path d="M66.93,81.14A11.18,11.18,0,1,1,78.11,70,11.18,11.18,0,0,1,66.93,81.14Zm0-18.16a7,7,0,1,0,7,7A7,7,0,0,0,66.93,63Z" style="fill:#e6e6e6"/></g><g style="opacity:0.5"><path d="M118,140a2.11,2.11,0,0,1-1.35-.67L97.75,118.5a2.09,2.09,0,0,1,3.1-2.81l18.94,20.8A2.09,2.09,0,0,1,118,140Z" style="fill:#e6e6e6"/></g><g style="opacity:0.5"><circle cx="52.88" cy="126.21" r="7.37" style="fill:#e6e6e6"/></g><path d="M33.37,3a2.44,2.44,0,0,1-3.43-.31A2.43,2.43,0,0,1,29.67,0H34A2.44,2.44,0,0,1,33.37,3Z" style="fill:#2a2e35"/><circle cx="38.17" cy="7.84" r="2.44" style="fill:#2a2e35"/><path d="M39.92,3.17A2.43,2.43,0,0,1,36.31,0h4.12A2.43,2.43,0,0,1,39.92,3.17Z" style="fill:#2a2e35"/><path d="M27.24,2.47,24.93,0h2.56A2.4,2.4,0,0,1,27.24,2.47Z" style="fill:#2a2e35"/><path d="M33.53,9.2,30.25,5.69A2.43,2.43,0,0,1,33.53,9.2Z" style="fill:#2a2e35"/><path d="M97.72,4.63A2.42,2.42,0,0,1,94.6,1.29Z" style="fill:#2a2e35"/><path d="M104,11.33a2.44,2.44,0,0,1-2.76-.7,2.41,2.41,0,0,1-.32-2.6Z" style="fill:#2a2e35"/><path d="M85.24,4A2.43,2.43,0,1,1,82.13.26,2,2,0,0,1,82.51,0h2.36a2.34,2.34,0,0,1,.69.57A2.43,2.43,0,0,1,85.24,4Z" style="fill:#2a2e35"/><circle cx="90.03" cy="8.8" r="2.44" style="fill:#2a2e35"/><circle cx="96.41" cy="15.47" r="2.44" style="fill:#2a2e35"/><path d="M91.78,4.12A2.44,2.44,0,1,1,88.66.38,2.05,2.05,0,0,1,89.31,0h1.83a2.29,2.29,0,0,1,1,.69A2.44,2.44,0,0,1,91.78,4.12Z" style="fill:#2a2e35"/><circle cx="96.57" cy="8.94" r="2.44" style="fill:#2a2e35"/><circle cx="102.94" cy="15.6" r="2.44" style="fill:#2a2e35"/><path d="M78.69,3.85A2.43,2.43,0,1,1,75.58.11.76.76,0,0,1,75.74,0h2.81A2.27,2.27,0,0,1,79,.42,2.43,2.43,0,0,1,78.69,3.85Z" style="fill:#2a2e35"/><path d="M72.16,3.72A2.43,2.43,0,0,1,69,0h3.16a2.65,2.65,0,0,1,.29.29A2.43,2.43,0,0,1,72.16,3.72Z" style="fill:#2a2e35"/><circle cx="76.97" cy="8.5" r="2.44" style="fill:#2a2e35"/><circle cx="83.32" cy="15.19" r="2.44" style="fill:#2a2e35"/><circle cx="89.66" cy="21.86" r="2.44" style="fill:#2a2e35"/><circle cx="83.49" cy="8.67" r="2.44" style="fill:#2a2e35"/><circle cx="89.86" cy="15.32" r="2.44" style="fill:#2a2e35"/><circle cx="96.2" cy="21.99" r="2.44" style="fill:#2a2e35"/><path d="M65.61,3.57A2.43,2.43,0,0,1,62.32,0H65.8a.86.86,0,0,1,.13.14A2.43,2.43,0,0,1,65.61,3.57Z" style="fill:#2a2e35"/><circle cx="70.43" cy="8.38" r="2.44" style="fill:#2a2e35"/><path d="M59.08,3.45A2.43,2.43,0,0,1,55.67,0h3.7l0,0A2.42,2.42,0,0,1,59.08,3.45Z" style="fill:#2a2e35"/><circle cx="63.89" cy="8.23" r="2.44" style="fill:#2a2e35"/><circle cx="70.24" cy="14.92" r="2.44" style="fill:#2a2e35"/><circle cx="76.61" cy="21.57" r="2.44" style="fill:#2a2e35"/><circle cx="82.94" cy="28.24" r="2.44" style="fill:#2a2e35"/><circle cx="76.77" cy="15.05" r="2.44" style="fill:#2a2e35"/><circle cx="83.11" cy="21.71" r="2.44" style="fill:#2a2e35"/><circle cx="89.49" cy="28.39" r="2.44" style="fill:#2a2e35"/><path d="M53.85,1.78A2.39,2.39,0,0,1,53,3.36a2.44,2.44,0,0,1-3.43-.31A2.41,2.41,0,0,1,49,1.29,2.38,2.38,0,0,1,49.52,0h3.84A2.38,2.38,0,0,1,53.85,1.78Z" style="fill:#2a2e35"/><circle cx="57.8" cy="8.14" r="2.44" style="fill:#2a2e35"/><circle cx="64.14" cy="14.81" r="2.44" style="fill:#2a2e35"/><path d="M47.32,1.34A2.44,2.44,0,0,1,43,2.9a2.27,2.27,0,0,1-.5-1,0,0,0,0,1,0,0,1.84,1.84,0,0,1,0-.41A2.26,2.26,0,0,1,42.86,0h4a2.16,2.16,0,0,1,.38,1A2,2,0,0,1,47.32,1.34Z" style="fill:#2a2e35"/><circle cx="51.25" cy="7.99" r="2.44" style="fill:#2a2e35"/><circle cx="57.61" cy="14.68" r="2.44" style="fill:#2a2e35"/><circle cx="63.95" cy="21.35" r="2.44" style="fill:#2a2e35"/><circle cx="70.31" cy="28" r="2.44" style="fill:#2a2e35"/><circle cx="76.67" cy="34.69" r="2.44" style="fill:#2a2e35"/><circle cx="70.5" cy="21.5" r="2.44" style="fill:#2a2e35"/><circle cx="76.86" cy="28.15" r="2.44" style="fill:#2a2e35"/><circle cx="83.2" cy="34.82" r="2.44" style="fill:#2a2e35"/><circle cx="44.72" cy="7.87" r="2.44" style="fill:#2a2e35"/><circle cx="51.06" cy="14.53" r="2.44" style="fill:#2a2e35"/><circle cx="57.44" cy="21.21" r="2.44" style="fill:#2a2e35"/><circle cx="38.17" cy="7.72" r="2.44" style="fill:#2a2e35"/><circle cx="44.52" cy="14.41" r="2.44" style="fill:#2a2e35"/><circle cx="50.89" cy="21.06" r="2.44" style="fill:#2a2e35"/><circle cx="57.23" cy="27.73" r="2.44" style="fill:#2a2e35"/><circle cx="63.61" cy="34.4" r="2.44" style="fill:#2a2e35"/><circle cx="69.95" cy="41.07" r="2.44" style="fill:#2a2e35"/><circle cx="63.78" cy="27.88" r="2.44" style="fill:#2a2e35"/><circle cx="70.12" cy="34.55" r="2.44" style="fill:#2a2e35"/><circle cx="76.5" cy="41.22" r="2.44" style="fill:#2a2e35"/><path d="M39.78,15.89l-3.31-3.54a2.43,2.43,0,0,1,3.31,3.54Z" style="fill:#2a2e35"/><path d="M46.08,22.63l-3.31-3.54,0,0a2.44,2.44,0,0,1,3.43.31A2.41,2.41,0,0,1,46.08,22.63Z" style="fill:#2a2e35"/><path d="M52.37,29.36l-3.32-3.55.09-.08a2.43,2.43,0,0,1,3.23,3.63Z" style="fill:#2a2e35"/><path d="M58.66,36.09l-3.32-3.55a.81.81,0,0,1,.16-.16,2.44,2.44,0,0,1,3.16,3.71Z" style="fill:#2a2e35"/><path d="M65,42.82h0l-3.32-3.55.22-.21A2.44,2.44,0,1,1,65,42.82Z" style="fill:#2a2e35"/><path d="M71.31,49.49l-.08,0L67.93,46a1.72,1.72,0,0,1,.27-.27,2.44,2.44,0,1,1,3.11,3.75Z" style="fill:#2a2e35"/><path d="M110.48,18.28a2.38,2.38,0,0,1-2.06-.87,2.45,2.45,0,0,1-.54-1.91Z" style="fill:#2a2e35"/><path d="M116.74,25a2.36,2.36,0,0,1-2-.87,2.42,2.42,0,0,1-.56-1.82Z" style="fill:#2a2e35"/><path d="M123,31.63a2.42,2.42,0,0,1-2.38-2.55Z" style="fill:#2a2e35"/><path d="M129.19,38.29a2.38,2.38,0,0,1-1.71-.86,2.43,2.43,0,0,1-.56-1.56Z" style="fill:#2a2e35"/><circle cx="110.1" cy="22.4" r="2.44" style="fill:#2a2e35"/><circle cx="116.48" cy="29.07" r="2.44" style="fill:#2a2e35"/><circle cx="122.82" cy="35.74" r="2.44" style="fill:#2a2e35"/><circle cx="103.59" cy="22.25" r="2.44" style="fill:#2a2e35"/><circle cx="109.93" cy="28.92" r="2.44" style="fill:#2a2e35"/><circle cx="116.27" cy="35.59" r="2.44" style="fill:#2a2e35"/><circle cx="122.65" cy="42.26" r="2.44" style="fill:#2a2e35"/><circle cx="128.99" cy="48.93" r="2.44" style="fill:#2a2e35"/><circle cx="129.18" cy="42.39" r="2.44" style="fill:#2a2e35"/><circle cx="135.54" cy="49.08" r="2.44" style="fill:#2a2e35"/><circle cx="103.4" cy="28.8" r="2.44" style="fill:#2a2e35"/><circle cx="109.74" cy="35.46" r="2.44" style="fill:#2a2e35"/><circle cx="116.1" cy="42.12" r="2.44" style="fill:#2a2e35"/><circle cx="96.85" cy="28.65" r="2.44" style="fill:#2a2e35"/><circle cx="103.21" cy="35.3" r="2.44" style="fill:#2a2e35"/><circle cx="109.57" cy="41.99" r="2.44" style="fill:#2a2e35"/><circle cx="115.91" cy="48.66" r="2.44" style="fill:#2a2e35"/><circle cx="122.27" cy="55.31" r="2.44" style="fill:#2a2e35"/><circle cx="122.46" cy="48.81" r="2.44" style="fill:#2a2e35"/><circle cx="128.82" cy="55.46" r="2.44" style="fill:#2a2e35"/><circle cx="96.68" cy="35.17" r="2.44" style="fill:#2a2e35"/><circle cx="103.02" cy="41.84" r="2.44" style="fill:#2a2e35"/><circle cx="109.37" cy="48.53" r="2.44" style="fill:#2a2e35"/><circle cx="90.13" cy="35.02" r="2.44" style="fill:#2a2e35"/><circle cx="96.49" cy="41.71" r="2.44" style="fill:#2a2e35"/><circle cx="102.85" cy="48.37" r="2.44" style="fill:#2a2e35"/><circle cx="109.19" cy="55.03" r="2.44" style="fill:#2a2e35"/><circle cx="115.55" cy="61.73" r="2.44" style="fill:#2a2e35"/><circle cx="115.74" cy="55.18" r="2.44" style="fill:#2a2e35"/><circle cx="122.08" cy="61.85" r="2.44" style="fill:#2a2e35"/><circle cx="90.38" cy="41.61" r="2.44" style="fill:#2a2e35"/><circle cx="96.74" cy="48.3" r="2.44" style="fill:#2a2e35"/><circle cx="103.1" cy="54.95" r="2.44" style="fill:#2a2e35"/><circle cx="83.85" cy="41.48" r="2.44" style="fill:#2a2e35"/><circle cx="90.19" cy="48.15" r="2.44" style="fill:#2a2e35"/><circle cx="96.57" cy="54.82" r="2.44" style="fill:#2a2e35"/><circle cx="102.91" cy="61.49" r="2.44" style="fill:#2a2e35"/><circle cx="109.27" cy="68.14" r="2.44" style="fill:#2a2e35"/><circle cx="109.44" cy="61.62" r="2.44" style="fill:#2a2e35"/><circle cx="115.8" cy="68.31" r="2.44" style="fill:#2a2e35"/><circle cx="83.68" cy="48" r="2.44" style="fill:#2a2e35"/><circle cx="90.02" cy="54.67" r="2.44" style="fill:#2a2e35"/><circle cx="96.36" cy="61.34" r="2.44" style="fill:#2a2e35"/><circle cx="77.13" cy="47.85" r="2.44" style="fill:#2a2e35"/><circle cx="83.49" cy="54.55" r="2.44" style="fill:#2a2e35"/><circle cx="89.83" cy="61.22" r="2.44" style="fill:#2a2e35"/><circle cx="96.19" cy="67.87" r="2.44" style="fill:#2a2e35"/><circle cx="102.55" cy="74.56" r="2.44" style="fill:#2a2e35"/><circle cx="102.74" cy="68.01" r="2.44" style="fill:#2a2e35"/><path d="M78.5,56.27a2.13,2.13,0,0,1-.63.37l-3.11-3.33a2.3,2.3,0,0,1,.62-.78,2.44,2.44,0,1,1,3.12,3.74Z" style="fill:#2a2e35"/><path d="M84.86,62.92a2.17,2.17,0,0,1-.74.41l-3.05-3.26a2.49,2.49,0,0,1,.67-.89,2.44,2.44,0,1,1,3.12,3.74Z" style="fill:#2a2e35"/><path d="M91.22,69.61a2.34,2.34,0,0,1-.82.44l-3-3.21a2.37,2.37,0,0,1,.7-1,2.44,2.44,0,1,1,3.12,3.74Z" style="fill:#2a2e35"/><path d="M97.56,76.28a2.24,2.24,0,0,1-.91.46l-2.94-3.15a2.28,2.28,0,0,1,.73-1,2.44,2.44,0,1,1,3.12,3.74Z" style="fill:#2a2e35"/><path d="M134.79,44.28a2.32,2.32,0,0,1-.88-.66,2.16,2.16,0,0,1-.41-.72Z" style="fill:#2a2e35"/><path d="M140.89,50.8a2.23,2.23,0,0,1-.6-.51,1.82,1.82,0,0,1-.27-.41Z" style="fill:#2a2e35"/><path d="M138,49.2a2.43,2.43,0,0,1-4.23.94,2.44,2.44,0,0,1,.31-3.43,2.43,2.43,0,0,1,2.81-.21h0l.89,1A2.45,2.45,0,0,1,138,49.2Z" style="fill:#2a2e35"/><path d="M143.53,57.15a2.44,2.44,0,1,1-.54-4.09h0l1.22,1.3A2.43,2.43,0,0,1,143.53,57.15Z" style="fill:#2a2e35"/><path d="M149.87,63.82a2.44,2.44,0,0,1-3.12-3.75,2.4,2.4,0,0,1,2.43-.39l1.44,1.53h0A2.43,2.43,0,0,1,149.87,63.82Z" style="fill:#2a2e35"/><circle cx="129.08" cy="48.46" r="2.44" style="fill:#2a2e35"/><circle cx="135.42" cy="55.13" r="2.44" style="fill:#2a2e35"/><circle cx="141.8" cy="61.8" r="2.44" style="fill:#2a2e35"/><circle cx="148.14" cy="68.47" r="2.44" style="fill:#2a2e35"/><circle cx="154.48" cy="75.14" r="2.44" style="fill:#2a2e35"/><circle cx="160.86" cy="81.81" r="2.44" style="fill:#2a2e35"/><path d="M156.23,70.47a2.44,2.44,0,1,1-3.12-3.74,2.39,2.39,0,0,1,2.22-.47L157,68.09A2.41,2.41,0,0,1,156.23,70.47Z" style="fill:#2a2e35"/><path d="M162.59,77.16a2.44,2.44,0,1,1-1-4.25l1.88,2A2.4,2.4,0,0,1,162.59,77.16Z" style="fill:#2a2e35"/><path d="M169.81,81.74a2.43,2.43,0,1,1-4-1.67,2.46,2.46,0,0,1,1.91-.54l2.06,2.2Z" style="fill:#2a2e35"/><circle cx="128.89" cy="55" r="2.44" style="fill:#2a2e35"/><circle cx="135.25" cy="61.65" r="2.44" style="fill:#2a2e35"/><circle cx="141.59" cy="68.32" r="2.44" style="fill:#2a2e35"/><circle cx="122.34" cy="54.85" r="2.44" style="fill:#2a2e35"/><circle cx="128.72" cy="61.53" r="2.44" style="fill:#2a2e35"/><circle cx="135.06" cy="68.2" r="2.44" style="fill:#2a2e35"/><circle cx="141.42" cy="74.85" r="2.44" style="fill:#2a2e35"/><circle cx="147.78" cy="81.54" r="2.44" style="fill:#2a2e35"/><circle cx="154.12" cy="88.21" r="2.44" style="fill:#2a2e35"/><circle cx="147.95" cy="75.01" r="2.44" style="fill:#2a2e35"/><circle cx="154.31" cy="81.66" r="2.44" style="fill:#2a2e35"/><circle cx="160.65" cy="88.33" r="2.44" style="fill:#2a2e35"/><circle cx="122.17" cy="61.38" r="2.44" style="fill:#2a2e35"/><circle cx="128.51" cy="68.05" r="2.44" style="fill:#2a2e35"/><circle cx="134.89" cy="74.72" r="2.44" style="fill:#2a2e35"/><circle cx="115.64" cy="61.25" r="2.44" style="fill:#2a2e35"/><circle cx="121.98" cy="67.92" r="2.44" style="fill:#2a2e35"/><circle cx="128.34" cy="74.57" r="2.44" style="fill:#2a2e35"/><circle cx="134.7" cy="81.26" r="2.44" style="fill:#2a2e35"/><circle cx="141.06" cy="87.91" r="2.44" style="fill:#2a2e35"/><circle cx="147.4" cy="94.58" r="2.44" style="fill:#2a2e35"/><circle cx="141.23" cy="81.39" r="2.44" style="fill:#2a2e35"/><circle cx="147.57" cy="88.06" r="2.44" style="fill:#2a2e35"/><circle cx="153.95" cy="94.73" r="2.44" style="fill:#2a2e35"/><circle cx="115.89" cy="67.83" r="2.44" style="fill:#2a2e35"/><circle cx="122.25" cy="74.48" r="2.44" style="fill:#2a2e35"/><circle cx="128.59" cy="81.15" r="2.44" style="fill:#2a2e35"/><circle cx="109.34" cy="67.69" r="2.44" style="fill:#2a2e35"/><circle cx="115.7" cy="74.34" r="2.44" style="fill:#2a2e35"/><circle cx="122.06" cy="81.03" r="2.44" style="fill:#2a2e35"/><circle cx="128.4" cy="87.7" r="2.44" style="fill:#2a2e35"/><circle cx="134.76" cy="94.35" r="2.44" style="fill:#2a2e35"/><circle cx="141.12" cy="101.04" r="2.44" style="fill:#2a2e35"/><circle cx="134.95" cy="87.85" r="2.44" style="fill:#2a2e35"/><circle cx="141.31" cy="94.5" r="2.44" style="fill:#2a2e35"/><circle cx="147.65" cy="101.17" r="2.44" style="fill:#2a2e35"/><circle cx="109.17" cy="74.21" r="2.44" style="fill:#2a2e35"/><circle cx="115.51" cy="80.88" r="2.44" style="fill:#2a2e35"/><circle cx="121.89" cy="87.55" r="2.44" style="fill:#2a2e35"/><circle cx="102.62" cy="74.06" r="2.44" style="fill:#2a2e35"/><circle cx="108.98" cy="80.75" r="2.44" style="fill:#2a2e35"/><circle cx="115.34" cy="87.4" r="2.44" style="fill:#2a2e35"/><circle cx="121.68" cy="94.07" r="2.44" style="fill:#2a2e35"/><circle cx="128.06" cy="100.75" r="2.44" style="fill:#2a2e35"/><circle cx="134.4" cy="107.42" r="2.44" style="fill:#2a2e35"/><circle cx="128.23" cy="94.22" r="2.44" style="fill:#2a2e35"/><circle cx="134.57" cy="100.89" r="2.44" style="fill:#2a2e35"/><circle cx="140.95" cy="107.56" r="2.44" style="fill:#2a2e35"/><path d="M102.52,83A2.44,2.44,0,0,1,100,80.35Z" style="fill:none"/><path d="M104,82.46a2.34,2.34,0,0,1-1.49.56L100,80.35a2.43,2.43,0,1,1,4,2.11Z" style="fill:#2a2e35"/><path d="M108.77,89.71a2.42,2.42,0,0,1-2.39-2.55Z" style="fill:none"/><path d="M110.37,89.15a2.39,2.39,0,0,1-1.6.56l-2.39-2.55h0a2.43,2.43,0,1,1,4,2Z" style="fill:#2a2e35"/><path d="M115,96.37a2.36,2.36,0,0,1-1.72-.86,2.43,2.43,0,0,1-.56-1.58Z" style="fill:none"/><path d="M116.71,95.82a2.38,2.38,0,0,1-1.71.55l-2.28-2.44a2.48,2.48,0,0,1,.87-1.86,2.44,2.44,0,0,1,3.12,3.75Z" style="fill:#2a2e35"/><path d="M121.21,103a2.38,2.38,0,0,1-1.57-.85,2.33,2.33,0,0,1-.55-1.41Z" style="fill:none"/><path d="M123.07,102.47a2.42,2.42,0,0,1-1.86.54l-2.12-2.26a2.38,2.38,0,0,1,.86-2,2.44,2.44,0,0,1,3.12,3.74Z" style="fill:#2a2e35"/><path d="M127.44,109.68a2.35,2.35,0,0,1-1.44-.83,2.31,2.31,0,0,1-.54-1.29Z" style="fill:none"/><path d="M129.43,109.16a2.39,2.39,0,0,1-2,.52l-2-2.12a2.39,2.39,0,0,1,.85-2.14,2.44,2.44,0,1,1,3.12,3.74Z" style="fill:#2a2e35"/><path d="M133.65,116.33a2.43,2.43,0,0,1-1.31-.81,2.47,2.47,0,0,1-.53-1.15Z" style="fill:none"/><path d="M135.77,115.83a2.43,2.43,0,0,1-2.12.5l-1.84-2h0a2.41,2.41,0,0,1,.84-2.27,2.44,2.44,0,1,1,3.12,3.74Z" style="fill:#2a2e35"/><circle cx="168.04" cy="88.6" r="2.44" style="fill:#2a2e35"/><circle cx="174.38" cy="95.27" r="2.44" style="fill:#2a2e35"/><circle cx="161.61" cy="94.93" r="2.44" style="fill:#2a2e35"/><circle cx="174.19" cy="101.81" r="2.44" style="fill:#2a2e35"/><circle cx="167.66" cy="101.64" r="2.44" style="fill:#2a2e35"/><circle cx="154.25" cy="101.91" r="2.44" style="fill:#2a2e35"/><circle cx="167.47" cy="108.19" r="2.44" style="fill:#2a2e35"/><circle cx="160.94" cy="108.06" r="2.44" style="fill:#2a2e35"/><circle cx="147.52" cy="108.74" r="2.44" style="fill:#2a2e35"/><circle cx="161.19" cy="114.64" r="2.44" style="fill:#2a2e35"/><circle cx="154.64" cy="114.49" r="2.44" style="fill:#2a2e35"/><circle cx="148.13" cy="114.35" r="2.44" style="fill:#2a2e35"/><circle cx="154.47" cy="121.02" r="2.44" style="fill:#2a2e35"/><circle cx="141.58" cy="114.2" r="2.44" style="fill:#2a2e35"/><circle cx="147.94" cy="120.89" r="2.44" style="fill:#2a2e35"/><ellipse cx="160.78" cy="108.71" rx="25.01" ry="9.56" transform="translate(-30.92 139.07) rotate(-43.07)" style="fill:#2a2e35"/><g id="Mask-6" data-name="Mask"><circle cx="138.1" cy="423.31" r="10" style="fill:#ff5a66"/></g><path d="M145,429.64a.83.83,0,1,1,1.26-1.09.92.92,0,0,1,.16.29,10.23,10.23,0,0,0,.89-1.66l0-.05a.83.83,0,0,1,.51-1.37c.05-.2.1-.39.13-.59a.84.84,0,0,1-.56-1.47.87.87,0,0,1,.74-.18c0-.2,0-.41,0-.61a.86.86,0,0,1-.82-.27.84.84,0,0,1,.09-1.18.87.87,0,0,1,.53-.2c0-.2-.09-.39-.14-.59a.81.81,0,0,1-.48-.27.83.83,0,0,1,0-1.09,11.23,11.23,0,0,0-.81-1.48.75.75,0,0,1-.25.39.84.84,0,0,1-1.09-1.27.87.87,0,0,1,.53-.2,10.78,10.78,0,0,0-1.39-1.32.82.82,0,0,1-.28.52.83.83,0,0,1-1.18-.08.84.84,0,0,1,.09-1.18l.12-.09a9.72,9.72,0,0,0-1.43-.66.82.82,0,0,1-1-.19.91.91,0,0,1-.11-.16l-.71-.14a1,1,0,0,1-.25.37.83.83,0,0,1-1.17-.09.77.77,0,0,1-.19-.41c-.2,0-.4,0-.6,0a.8.8,0,0,1-.26.46.84.84,0,0,1-1.18-.08,1.63,1.63,0,0,1-.11-.17,10.09,10.09,0,0,0-1,.29.8.8,0,0,1-.39.14,9.46,9.46,0,0,0-1.9,1,.7.7,0,0,1,.19.16.85.85,0,0,1-.08,1.18.84.84,0,0,1-1.18-.09.9.9,0,0,1-.17-.3,10,10,0,0,0-1.14,1.21.76.76,0,0,1,.33.23.83.83,0,0,1-1.23,1.12,10.2,10.2,0,0,0-1.13,3.23.46.46,0,0,1,.12.12.82.82,0,0,1-.08,1.17.66.66,0,0,1-.17.12c0,.25,0,.5,0,.76a.72.72,0,0,1,.24.19.84.84,0,0,1-.08,1.17,10.05,10.05,0,0,0,1.15,3.09.86.86,0,0,1,1.18.09.84.84,0,0,1-.09,1.18.71.71,0,0,1-.14.1l.17.2a9.27,9.27,0,0,0,.94.94.76.76,0,0,1,.18-.23.84.84,0,0,1,1.14,1.22,10.54,10.54,0,0,0,1.68.84.82.82,0,0,1,.47.17,8.85,8.85,0,0,0,1,.27,1.24,1.24,0,0,1,.18-.22.84.84,0,0,1,1.18.09.91.91,0,0,1,.17.34l.62,0a.75.75,0,0,1,.26-.42.82.82,0,0,1,1.17.08.71.71,0,0,1,.13.22l.84-.18.1-.1a.79.79,0,0,1,.79-.16A10.61,10.61,0,0,0,143,432a1.24,1.24,0,0,1-.22-.18.84.84,0,1,1,1.26-1.1.91.91,0,0,1,.2.45l.42-.34a10.55,10.55,0,0,0,.95-.94A.82.82,0,0,1,145,429.64Zm-2.24-4.51a.85.85,0,0,1,.08-1.18.84.84,0,1,1-.08,1.18Zm-11.19,0a.83.83,0,1,1,1.17.09A.83.83,0,0,1,131.58,425.17Zm1.18,2.18a.83.83,0,0,1-1.18-.08.84.84,0,1,1,1.18.08Zm1.15-1.24a.84.84,0,0,1,1.09,1.27.84.84,0,1,1-1.09-1.27Zm-.08-1.07a.83.83,0,0,1,.08-1.18.84.84,0,0,1,1.09,1.27A.83.83,0,0,1,133.83,425Zm.06-3.27a.83.83,0,1,1-.08,1.18A.83.83,0,0,1,133.89,421.77Zm2.25,4.36a.84.84,0,0,1,1.18.09.85.85,0,0,1-.08,1.18.84.84,0,0,1-1.1-1.27Zm-.09-1.06a.84.84,0,0,1,.09-1.18.83.83,0,0,1,1.17.08.84.84,0,1,1-1.26,1.1Zm1.26-3.35a.83.83,0,0,1-.08,1.18.82.82,0,0,1-1.17-.08.83.83,0,1,1,1.25-1.1Zm-1.19-2.17a.85.85,0,0,1,1.18.08.84.84,0,0,1-.08,1.18.83.83,0,0,1-1.18-.08A.85.85,0,0,1,136.12,419.55Zm2.26,6.6a.83.83,0,0,1,1.17.08.84.84,0,1,1-1.17-.08Zm-.08-1.06a.83.83,0,1,1,1.17.09A.83.83,0,0,1,138.3,425.09Zm0-2.25a.83.83,0,1,1,1.17.09A.83.83,0,0,1,138.3,422.84Zm.07-3.42a.84.84,0,1,1-.08,1.18A.84.84,0,0,1,138.37,419.42Zm2.24,4.51a.84.84,0,1,1,1.1,1.26.83.83,0,0,1-1.18-.08A.84.84,0,0,1,140.61,423.93Zm-.08-1.07a.83.83,0,1,1,1.26-1.09.83.83,0,1,1-1.26,1.09Zm3.53-1.35a.85.85,0,0,1-.08,1.18.84.84,0,1,1,.08-1.18Zm-1.18-2.34a.84.84,0,1,1-.08,1.18A.84.84,0,0,1,142.88,419.17Zm-1.14,1.25a.83.83,0,0,1-1.17-.09.83.83,0,0,1,1.25-1.09A.83.83,0,0,1,141.74,420.42Zm4.44,7.06a.83.83,0,0,1-1.18-.08.84.84,0,0,1,.09-1.18.83.83,0,0,1,1.17.08A.84.84,0,0,1,146.18,427.48Zm0-2.53a.83.83,0,1,1,.08-1.18A.83.83,0,0,1,146.22,425Zm0-2.24a.84.84,0,0,1-1.18-.09.83.83,0,0,1,1.26-1.09A.85.85,0,0,1,146.22,422.71Zm.08-3.43a.84.84,0,1,1-1.26,1.1.85.85,0,0,1,.08-1.18A.83.83,0,0,1,146.3,419.28ZM144.06,417a.84.84,0,1,1-1.26,1.1.85.85,0,0,1,.08-1.18A.84.84,0,0,1,144.06,417Zm-3.42-2.2a.82.82,0,0,1,1.17.08.84.84,0,1,1-1.17-.08Zm1.18,2.18a.83.83,0,1,1-1.26,1.09.85.85,0,0,1,.08-1.18A.84.84,0,0,1,141.82,417Zm-3.43-2.21a.84.84,0,1,1-.08,1.18A.84.84,0,0,1,138.39,414.79Zm1.18,2.34a.85.85,0,0,1-.08,1.18.84.84,0,1,1,.08-1.18Zm-3.41-2.35a.83.83,0,0,1,1.18.08.84.84,0,1,1-1.18-.08Zm1.14,2.61a.83.83,0,1,1-1.17-.09A.83.83,0,0,1,137.3,417.39ZM133.89,415a.83.83,0,0,1,1.17.09.83.83,0,1,1-1.17-.09Zm0,2.24a.84.84,0,1,1-.08,1.18A.84.84,0,0,1,133.89,417.28Zm1.18,2.34a.84.84,0,0,1-.09,1.18.84.84,0,0,1-1.09-1.27A.84.84,0,0,1,135.07,419.62Zm-3.42-2.36a.84.84,0,0,1,1.18.09.83.83,0,0,1-.09,1.17.82.82,0,0,1-1.17-.08A.84.84,0,0,1,131.65,417.26Zm0,2.24a.84.84,0,1,1-.08,1.18A.84.84,0,0,1,131.65,419.5Zm1.18,2.34a.85.85,0,0,1-.08,1.18.84.84,0,1,1,.08-1.18Zm-3.41-2.35a.83.83,0,0,1,1.18.08.83.83,0,1,1-1.26,1.09A.83.83,0,0,1,129.42,419.49Zm0,2.24a.83.83,0,0,1,1.18.08.84.84,0,1,1-1.26,1.1A.84.84,0,0,1,129.41,421.73Zm0,2.24a.83.83,0,1,1-.09,1.18A.84.84,0,0,1,129.42,424Zm-.09,3.43a.85.85,0,0,1,.08-1.18.84.84,0,1,1-.08,1.18Zm2.26,2.11a.83.83,0,1,1,1.26-1.09.85.85,0,0,1-.08,1.18A.84.84,0,0,1,131.59,429.51Zm3.41,2.35a.84.84,0,0,1-1.18-.08.85.85,0,0,1,.08-1.18.84.84,0,0,1,1.1,1.26Zm-1.18-2.33a.84.84,0,0,1,.09-1.18.83.83,0,0,1,1.17.08.84.84,0,1,1-1.26,1.1Zm3.42,2.36a.84.84,0,1,1,.08-1.18A.84.84,0,0,1,137.24,431.89Zm-1.18-2.33a.83.83,0,0,1,.08-1.18.85.85,0,0,1,1.18.08.84.84,0,0,1-.09,1.18A.82.82,0,0,1,136.06,429.56Zm3.41,2.34a.83.83,0,1,1,.08-1.18A.83.83,0,0,1,139.47,431.9Zm-1.18-2.32a.85.85,0,0,1,.08-1.18.83.83,0,0,1,1.18.08.84.84,0,0,1-.08,1.18A.85.85,0,0,1,138.29,429.58Zm3.42,2.35a.83.83,0,0,1-1.17-.09.83.83,0,1,1,1.17.09Zm0-2.25a.83.83,0,0,1-1.18-.08.83.83,0,1,1,1.26-1.09A.83.83,0,0,1,141.71,429.68Zm-1.17-2.33a.83.83,0,1,1,1.17.09A.83.83,0,0,1,140.54,427.35Zm3.4,2.35a.83.83,0,0,1-1.17-.08.84.84,0,1,1,1.17.08Zm-1.17-2.33a.84.84,0,1,1,1.26-1.1.85.85,0,0,1-.08,1.18A.84.84,0,0,1,142.77,427.37Z" style="fill:none"/><path d="M130.51,418.51a.84.84,0,0,0,.08-1.18.76.76,0,0,0-.33-.23,9.9,9.9,0,0,0-.9,1.35A.84.84,0,0,0,130.51,418.51Z" style="fill:#db3e51"/><path d="M131.57,416.19a.84.84,0,0,0,1.18.09.85.85,0,0,0,.08-1.18.7.7,0,0,0-.19-.16,9.41,9.41,0,0,0-1.09.82l-.15.13A.9.9,0,0,0,131.57,416.19Z" style="fill:#db3e51"/><path d="M128.27,423a.82.82,0,0,0,.08-1.17.46.46,0,0,0-.12-.12,11.2,11.2,0,0,0-.13,1.41A.66.66,0,0,0,128.27,423Z" style="fill:#db3e51"/><path d="M128.36,424a.72.72,0,0,0-.24-.19,10.5,10.5,0,0,0,.16,1.36A.84.84,0,0,0,128.36,424Z" style="fill:#db3e51"/><path d="M130.51,423a.85.85,0,0,0,.08-1.18.83.83,0,0,0-1.18-.08.84.84,0,0,0-.08,1.18A.85.85,0,0,0,130.51,423Z" style="fill:#db3e51"/><path d="M132.75,420.77a.84.84,0,0,0-1.1-1.27.84.84,0,0,0,1.1,1.27Z" style="fill:#db3e51"/><path d="M135,418.55a.84.84,0,0,0-1.1-1.27.84.84,0,0,0,1.1,1.27Z" style="fill:#db3e51"/><path d="M130.52,420.75a.85.85,0,0,0,.08-1.18.83.83,0,0,0-1.26,1.09A.84.84,0,0,0,130.52,420.75Z" style="fill:#db3e51"/><path d="M132.74,418.52a.83.83,0,0,0,.09-1.17.83.83,0,1,0-1.26,1.09A.82.82,0,0,0,132.74,418.52Z" style="fill:#db3e51"/><path d="M135,416.31a.84.84,0,0,0,.08-1.18.83.83,0,0,0-1.17-.09.84.84,0,0,0,1.09,1.27Z" style="fill:#db3e51"/><path d="M130.51,425.23a.83.83,0,0,0-1.09-1.26.84.84,0,0,0-.09,1.18A.83.83,0,0,0,130.51,425.23Z" style="fill:#db3e51"/><circle cx="129.96" cy="426.85" r="0.83" transform="translate(-171.15 97.57) rotate(-25.51)" style="fill:#db3e51"/><path d="M132.75,425.26a.84.84,0,1,0-1.17-.09A.83.83,0,0,0,132.75,425.26Z" style="fill:#db3e51"/><path d="M135,423a.83.83,0,1,0-1.17-.08A.83.83,0,0,0,135,423Z" style="fill:#db3e51"/><path d="M137.22,420.81a.84.84,0,0,0,.08-1.18.84.84,0,0,0-1.26,1.1A.83.83,0,0,0,137.22,420.81Z" style="fill:#db3e51"/><path d="M131.57,422.93a.84.84,0,0,0,1.18.09.85.85,0,0,0,.08-1.18.83.83,0,1,0-1.26,1.09Z" style="fill:#db3e51"/><path d="M133.81,420.71a.83.83,0,0,0,1.17.09.84.84,0,0,0-1.09-1.27A.83.83,0,0,0,133.81,420.71Z" style="fill:#db3e51"/><path d="M136,418.48a.83.83,0,1,0,1.26-1.09.83.83,0,0,0-1.17-.09A.84.84,0,0,0,136,418.48Z" style="fill:#db3e51"/><path d="M130.52,429.57a.84.84,0,0,0,.09-1.18.86.86,0,0,0-1.18-.09,11.55,11.55,0,0,0,.95,1.37A.71.71,0,0,0,130.52,429.57Z" style="fill:#db3e51"/><path d="M131.67,426.09a.84.84,0,0,0-.09,1.18.84.84,0,1,0,.09-1.18Z" style="fill:#db3e51"/><path d="M132.85,428.42a.83.83,0,1,0-.08,1.18A.84.84,0,0,0,132.85,428.42Z" style="fill:#db3e51"/><path d="M135,427.38a.84.84,0,0,0-1.09-1.27.84.84,0,1,0,1.09,1.27Z" style="fill:#db3e51"/><path d="M137.23,425.15a.84.84,0,0,0,.08-1.18.83.83,0,0,0-1.17-.08.83.83,0,1,0,1.09,1.26Z" style="fill:#db3e51"/><path d="M139.47,422.93a.84.84,0,1,0-1.17-.09A.83.83,0,0,0,139.47,422.93Z" style="fill:#db3e51"/><path d="M135,425.13a.84.84,0,0,0-1.09-1.27.84.84,0,0,0,1.09,1.27Z" style="fill:#db3e51"/><path d="M136.14,421.64a.83.83,0,0,0-.08,1.18.82.82,0,0,0,1.17.08.83.83,0,0,0-1.09-1.26Z" style="fill:#db3e51"/><path d="M139.47,420.69a.84.84,0,0,0-1.1-1.27.84.84,0,0,0,1.1,1.27Z" style="fill:#db3e51"/><path d="M132.84,430.67a.83.83,0,0,0-1.17-.09.76.76,0,0,0-.18.23,9.09,9.09,0,0,0,1.32,1A.83.83,0,0,0,132.84,430.67Z" style="fill:#db3e51"/><path d="M135.08,428.43a.83.83,0,0,0-1.17-.08.84.84,0,0,0-.09,1.18.84.84,0,1,0,1.26-1.1Z" style="fill:#db3e51"/><path d="M133.9,430.6a.85.85,0,0,0-.08,1.18.84.84,0,1,0,.08-1.18Z" style="fill:#db3e51"/><path d="M137.32,428.46a.85.85,0,0,0-1.18-.08.83.83,0,0,0-.08,1.18.82.82,0,0,0,1.17.08A.84.84,0,0,0,137.32,428.46Z" style="fill:#db3e51"/><path d="M139.47,427.41a.84.84,0,0,0,.08-1.18.83.83,0,0,0-1.17-.08.83.83,0,1,0,1.09,1.26Z" style="fill:#db3e51"/><path d="M141.71,425.19a.84.84,0,1,0-1.1-1.26.84.84,0,0,0-.08,1.18A.83.83,0,0,0,141.71,425.19Z" style="fill:#db3e51"/><path d="M137.24,427.4a.85.85,0,0,0,.08-1.18.83.83,0,1,0-.08,1.18Z" style="fill:#db3e51"/><path d="M139.47,425.18a.84.84,0,1,0-1.17-.09A.83.83,0,0,0,139.47,425.18Z" style="fill:#db3e51"/><path d="M141.71,423a.84.84,0,0,0-1.1-1.27.84.84,0,0,0,1.1,1.27Z" style="fill:#db3e51"/><path d="M134.49,432.64l.47.17A.82.82,0,0,0,134.49,432.64Z" style="fill:#db3e51"/><path d="M136.14,430.62a.84.84,0,0,0,1.1,1.27.84.84,0,0,0-1.1-1.27Z" style="fill:#db3e51"/><path d="M137.33,433a.84.84,0,0,0-1.18-.09,1.24,1.24,0,0,0-.18.22,10,10,0,0,0,1.53.21A.91.91,0,0,0,137.33,433Z" style="fill:#db3e51"/><circle cx="138.93" cy="431.27" r="0.83" transform="translate(-172.27 101.95) rotate(-25.52)" style="fill:#db3e51"/><path d="M140.61,428.42a.85.85,0,0,0-.08,1.18.83.83,0,0,0,1.26-1.09A.84.84,0,0,0,140.61,428.42Z" style="fill:#db3e51"/><path d="M144,426.27a.84.84,0,1,0-.08,1.18A.85.85,0,0,0,144,426.27Z" style="fill:#db3e51"/><path d="M139.55,428.48a.83.83,0,0,0-1.18-.08.84.84,0,1,0,1.1,1.26A.84.84,0,0,0,139.55,428.48Z" style="fill:#db3e51"/><path d="M141.79,426.26a.83.83,0,1,0-.08,1.18A.83.83,0,0,0,141.79,426.26Z" style="fill:#db3e51"/><path d="M144,424a.84.84,0,0,0-1.18-.09.85.85,0,0,0-.08,1.18A.83.83,0,1,0,144,424Z" style="fill:#db3e51"/><path d="M139.55,433a.82.82,0,0,0-1.17-.08.75.75,0,0,0-.26.42,10.25,10.25,0,0,0,1.56-.12A.71.71,0,0,0,139.55,433Z" style="fill:#db3e51"/><path d="M140.62,432.91l-.1.1a9.07,9.07,0,0,0,.89-.26A.79.79,0,0,0,140.62,432.91Z" style="fill:#db3e51"/><path d="M144,430.76a.84.84,0,1,0-1.26,1.1,1.24,1.24,0,0,0,.22.18,9.93,9.93,0,0,0,1.24-.83A.91.91,0,0,0,144,430.76Z" style="fill:#db3e51"/><path d="M146.27,428.55a.83.83,0,1,0-1.26,1.09.82.82,0,0,0,.59.29,10.81,10.81,0,0,0,.83-1.09A.92.92,0,0,0,146.27,428.55Z" style="fill:#db3e51"/><path d="M140.62,430.66a.84.84,0,0,0-.08,1.18.83.83,0,0,0,1.17.09.84.84,0,0,0-1.09-1.27Z" style="fill:#db3e51"/><path d="M142.85,428.44a.84.84,0,0,0-.08,1.18.83.83,0,0,0,1.17.08.84.84,0,0,0,.09-1.18A.83.83,0,0,0,142.85,428.44Z" style="fill:#db3e51"/><path d="M145.09,426.22a.84.84,0,0,0-.09,1.18.84.84,0,1,0,.09-1.18Z" style="fill:#db3e51"/><path d="M134.93,413.83l-.39.14A.8.8,0,0,0,134.93,413.83Z" style="fill:#db3e51"/><path d="M136.08,413.71a.84.84,0,0,0,1.18.08.8.8,0,0,0,.26-.46,10.13,10.13,0,0,0-1.55.21A1.63,1.63,0,0,0,136.08,413.71Z" style="fill:#db3e51"/><path d="M137.25,416a.84.84,0,0,0,.09-1.18.84.84,0,1,0-.09,1.18Z" style="fill:#db3e51"/><path d="M138.31,413.73a.83.83,0,0,0,1.17.09,1,1,0,0,0,.25-.37,9.71,9.71,0,0,0-1.61-.13A.77.77,0,0,0,138.31,413.73Z" style="fill:#db3e51"/><path d="M139.49,416.06a.84.84,0,0,0-1.1-1.27.84.84,0,0,0,1.1,1.27Z" style="fill:#db3e51"/><path d="M140.55,413.75a.82.82,0,0,0,1,.19,10.76,10.76,0,0,0-1.14-.35A.91.91,0,0,0,140.55,413.75Z" style="fill:#db3e51"/><path d="M138.31,418.22a.84.84,0,0,0,1.18.09.85.85,0,0,0,.08-1.18.83.83,0,1,0-1.26,1.09Z" style="fill:#db3e51"/><path d="M141.73,416.08a.84.84,0,0,0,.08-1.18.82.82,0,0,0-1.17-.08.83.83,0,1,0,1.09,1.26Z" style="fill:#db3e51"/><path d="M140.56,418.09a.83.83,0,1,0,.08-1.18A.85.85,0,0,0,140.56,418.09Z" style="fill:#db3e51"/><path d="M142.8,415.87A.83.83,0,0,0,144,416a.82.82,0,0,0,.28-.52,10,10,0,0,0-1.25-.83l-.12.09A.84.84,0,0,0,142.8,415.87Z" style="fill:#db3e51"/><path d="M140.65,419.16a.82.82,0,0,0-.08,1.17.83.83,0,1,0,1.25-1.09A.82.82,0,0,0,140.65,419.16Z" style="fill:#db3e51"/><path d="M142.8,418.12a.84.84,0,1,0,.08-1.18A.85.85,0,0,0,142.8,418.12Z" style="fill:#db3e51"/><path d="M144,420.44a.84.84,0,0,0-1.1-1.27.84.84,0,0,0,1.1,1.27Z" style="fill:#db3e51"/><path d="M145.12,417a.84.84,0,0,0,1.09,1.27.75.75,0,0,0,.25-.39,9.12,9.12,0,0,0-.81-1.07h0A.87.87,0,0,0,145.12,417Z" style="fill:#db3e51"/><path d="M142.88,421.42a.84.84,0,0,0,1.1,1.27.84.84,0,0,0-1.1-1.27Z" style="fill:#db3e51"/><path d="M145,420.38a.84.84,0,1,0,1.26-1.1.83.83,0,0,0-1.18-.08A.85.85,0,0,0,145,420.38Z" style="fill:#db3e51"/><path d="M145.12,421.45a.83.83,0,0,0-.08,1.17.83.83,0,1,0,1.26-1.09A.83.83,0,0,0,145.12,421.45Z" style="fill:#db3e51"/><path d="M147.27,420.4a.81.81,0,0,0,.48.27,11,11,0,0,0-.48-1.36A.83.83,0,0,0,147.27,420.4Z" style="fill:#db3e51"/><path d="M145.13,423.69a.83.83,0,1,0,1.17.08A.83.83,0,0,0,145.13,423.69Z" style="fill:#db3e51"/><path d="M147.36,421.46a.84.84,0,0,0-.09,1.18.86.86,0,0,0,.82.27,10.32,10.32,0,0,0-.2-1.65A.87.87,0,0,0,147.36,421.46Z" style="fill:#db3e51"/><path d="M147.36,423.7a.84.84,0,0,0,.56,1.47,11.26,11.26,0,0,0,.18-1.65A.87.87,0,0,0,147.36,423.7Z" style="fill:#db3e51"/><path d="M147.36,426a.84.84,0,0,0-.08,1.18l0,.05a9.44,9.44,0,0,0,.47-1.42A.83.83,0,0,0,147.36,426Z" style="fill:#db3e51"/><path d="M147.76,425.91a10,10,0,0,1-17.22,4c-.11-.14-.22-.26-.32-.4C133.33,431,140.91,433.56,147.76,425.91Z" style="fill:#db3d50;fill-rule:evenodd"/><g id="Mask-7" data-name="Mask"><circle cx="220.53" cy="266.9" r="14.14" style="fill:#ff5a66"/></g><path d="M230.3,275.85a1.18,1.18,0,1,1,1.78-1.55,1,1,0,0,1,.23.42,13.73,13.73,0,0,0,1.26-2.36l-.06-.06a1.18,1.18,0,0,1,.12-1.67,1.2,1.2,0,0,1,.61-.27q.1-.42.18-.84a1.18,1.18,0,0,1-.91-.4,1.18,1.18,0,0,1,1.16-1.92c0-.29,0-.58,0-.88a1.15,1.15,0,0,1-1.15-.37,1.19,1.19,0,0,1,.11-1.67,1.13,1.13,0,0,1,.75-.28c-.06-.28-.12-.56-.2-.84a1.17,1.17,0,0,1-.67-.38,1.18,1.18,0,0,1,0-1.54,13.65,13.65,0,0,0-1.13-2.09,1.16,1.16,0,0,1-.35.55,1.18,1.18,0,1,1-1.55-1.79,1.11,1.11,0,0,1,.75-.28,14.43,14.43,0,0,0-2-1.87,1.15,1.15,0,0,1-.39.73,1.16,1.16,0,0,1-1.66-.12,1.19,1.19,0,0,1,.11-1.67l.18-.12a14.21,14.21,0,0,0-2-.94,1.17,1.17,0,0,1-1.46-.26c-.06-.07-.11-.15-.16-.22a8.62,8.62,0,0,0-1-.21,1.1,1.1,0,0,1-.34.52,1.17,1.17,0,0,1-1.66-.12,1.14,1.14,0,0,1-.27-.59l-.84,0a1.21,1.21,0,0,1-.38.65,1.18,1.18,0,0,1-1.66-.12c-.06-.08-.11-.16-.16-.24a15,15,0,0,0-1.46.4,1.12,1.12,0,0,1-.57.2,14.79,14.79,0,0,0-2.68,1.38,1.13,1.13,0,0,1,.27.22,1.18,1.18,0,1,1-1.78,1.55,1.13,1.13,0,0,1-.23-.43,14.43,14.43,0,0,0-1.62,1.71,1.18,1.18,0,0,1,.35,2,1.16,1.16,0,0,1-1.62-.08,14,14,0,0,0-1.6,4.57,1.29,1.29,0,0,1,.17.16,1.18,1.18,0,0,1-.11,1.67,1.11,1.11,0,0,1-.24.16c0,.36,0,.72,0,1.07a1.44,1.44,0,0,1,.34.27,1.19,1.19,0,0,1-.11,1.66,13.92,13.92,0,0,0,1.63,4.38,1.18,1.18,0,0,1,1.54,1.79l-.2.14.23.27a14,14,0,0,0,1.33,1.34,1.14,1.14,0,0,1,.26-.32,1.18,1.18,0,0,1,1.61,1.72,14.69,14.69,0,0,0,2.38,1.19,1.17,1.17,0,0,1,.66.23,13.92,13.92,0,0,0,1.44.4,1.08,1.08,0,0,1,.24-.32,1.19,1.19,0,0,1,1.67.12,1.42,1.42,0,0,1,.25.49,8.42,8.42,0,0,0,.87,0,1.15,1.15,0,0,1,.36-.59,1.18,1.18,0,0,1,1.67.12.92.92,0,0,1,.18.3c.4-.06.79-.15,1.19-.24l.13-.15a1.16,1.16,0,0,1,1.12-.23,13.61,13.61,0,0,0,2.24-1,1,1,0,0,1-.31-.25,1.18,1.18,0,1,1,1.78-1.54,1.16,1.16,0,0,1,.28.63l.6-.49a13.91,13.91,0,0,0,1.33-1.33A1.19,1.19,0,0,1,230.3,275.85Zm-3.16-6.38a1.18,1.18,0,1,1,1.78-1.54,1.18,1.18,0,1,1-1.78,1.54Zm-15.83.06a1.18,1.18,0,1,1,1.66.12A1.18,1.18,0,0,1,211.31,269.53Zm1.67,3.08a1.17,1.17,0,0,1-1.66-.12,1.18,1.18,0,1,1,1.66.12Zm1.62-1.75a1.18,1.18,0,1,1-.11,1.67A1.19,1.19,0,0,1,214.6,270.86Zm-.11-1.51a1.18,1.18,0,1,1,1.67.12A1.19,1.19,0,0,1,214.49,269.35Zm.09-4.64a1.18,1.18,0,1,1-.12,1.67A1.18,1.18,0,0,1,214.58,264.71Zm3.18,6.17a1.18,1.18,0,1,1,1.55,1.79,1.18,1.18,0,0,1-1.55-1.79Zm-.12-1.5a1.18,1.18,0,1,1,1.66.12A1.17,1.17,0,0,1,217.64,269.38Zm1.78-4.73a1.18,1.18,0,1,1-1.66-.12A1.18,1.18,0,0,1,219.42,264.65Zm-1.68-3.07a1.17,1.17,0,0,1,1.66.12,1.18,1.18,0,1,1-1.66-.12Zm3.18,9.33a1.18,1.18,0,0,1,1.67.12,1.2,1.2,0,0,1-.12,1.67,1.18,1.18,0,0,1-1.55-1.79Zm-.11-1.5a1.18,1.18,0,1,1,1.66.12A1.16,1.16,0,0,1,220.81,269.41Zm0-3.18a1.18,1.18,0,0,1,.12-1.66,1.17,1.17,0,0,1,1.66.12,1.18,1.18,0,1,1-1.78,1.54Zm.11-4.83a1.18,1.18,0,1,1,1.55,1.78,1.18,1.18,0,0,1-1.55-1.78Zm3.17,6.37a1.18,1.18,0,1,1-.12,1.67A1.17,1.17,0,0,1,224.09,267.77Zm-.12-1.51a1.19,1.19,0,0,1,.12-1.67,1.18,1.18,0,0,1,1.55,1.79A1.19,1.19,0,0,1,224,266.26Zm5-1.92a1.19,1.19,0,0,1-.12,1.67,1.17,1.17,0,0,1-1.66-.12,1.18,1.18,0,1,1,1.78-1.55ZM227.3,261a1.18,1.18,0,1,1-.12,1.67A1.18,1.18,0,0,1,227.3,261Zm-1.61,1.77a1.18,1.18,0,1,1,.11-1.67A1.19,1.19,0,0,1,225.69,262.81Zm6.27,10a1.18,1.18,0,1,1,.11-1.67A1.18,1.18,0,0,1,232,272.8Zm.06-3.58a1.18,1.18,0,0,1-1.55-1.79,1.17,1.17,0,0,1,1.66.12A1.19,1.19,0,0,1,232,269.22Zm0-3.17a1.18,1.18,0,1,1,.12-1.67A1.2,1.2,0,0,1,232,266.05Zm.12-4.85a1.18,1.18,0,1,1-1.66-.12A1.18,1.18,0,0,1,232.13,261.2ZM229,258a1.18,1.18,0,1,1-1.78,1.54,1.2,1.2,0,0,1,.12-1.67A1.18,1.18,0,0,1,229,258Zm-4.84-3.12a1.18,1.18,0,0,1,1.55,1.78,1.18,1.18,0,1,1-1.55-1.78Zm1.67,3.08a1.18,1.18,0,1,1-1.66-.12A1.17,1.17,0,0,1,225.79,258ZM221,254.85a1.18,1.18,0,0,1,1.55,1.79,1.18,1.18,0,1,1-1.55-1.79Zm1.66,3.3A1.18,1.18,0,1,1,221,258,1.18,1.18,0,0,1,222.61,258.15Zm-4.82-3.32a1.16,1.16,0,0,1,1.66.12,1.18,1.18,0,1,1-1.66-.12Zm1.62,3.69a1.2,1.2,0,0,1-.12,1.67,1.18,1.18,0,1,1,.12-1.67Zm-4.84-3.32a1.18,1.18,0,1,1,1.55,1.79,1.18,1.18,0,0,1-1.55-1.79Zm0,3.17a1.18,1.18,0,0,1,1.55,1.79,1.16,1.16,0,0,1-1.66-.12A1.19,1.19,0,0,1,214.58,258.37Zm1.66,3.3a1.18,1.18,0,1,1-1.66-.12A1.18,1.18,0,0,1,216.24,261.67Zm-4.83-3.33a1.18,1.18,0,1,1,1.55,1.79,1.18,1.18,0,0,1-1.55-1.79Zm0,3.17A1.18,1.18,0,0,1,213,263.3a1.18,1.18,0,1,1-1.55-1.79Zm1.66,3.3a1.18,1.18,0,1,1-1.66-.12A1.19,1.19,0,0,1,213.08,264.81Zm-4.82-3.32a1.16,1.16,0,0,1,1.66.12,1.17,1.17,0,1,1-1.77,1.54A1.17,1.17,0,0,1,208.26,261.49Zm0,3.17a1.18,1.18,0,0,1,1.55,1.78,1.18,1.18,0,1,1-1.55-1.78Zm0,3.17a1.18,1.18,0,1,1-.12,1.66A1.17,1.17,0,0,1,208.26,267.83Zm-.12,4.84a1.18,1.18,0,1,1,1.66.12A1.17,1.17,0,0,1,208.14,272.67Zm3.19,3a1.18,1.18,0,1,1,1.66.12A1.17,1.17,0,0,1,211.33,275.66Zm4.82,3.33a1.18,1.18,0,0,1-1.55-1.79,1.18,1.18,0,0,1,1.55,1.79Zm-1.66-3.3a1.18,1.18,0,1,1,1.66.12A1.18,1.18,0,0,1,214.49,275.69Zm4.83,3.33a1.18,1.18,0,1,1,.11-1.67A1.19,1.19,0,0,1,219.32,279Zm-1.67-3.29a1.18,1.18,0,1,1,1.66.12A1.17,1.17,0,0,1,217.65,275.73Zm4.83,3.32a1.19,1.19,0,0,1-1.67-.13,1.18,1.18,0,1,1,1.78-1.54A1.19,1.19,0,0,1,222.48,279.05Zm-1.68-3.3a1.18,1.18,0,0,1,.12-1.66,1.18,1.18,0,0,1,1.55,1.78A1.18,1.18,0,0,1,220.8,275.75Zm4.84,3.33a1.18,1.18,0,1,1,.12-1.67A1.17,1.17,0,0,1,225.64,279.08Zm0-3.17a1.18,1.18,0,0,1-1.55-1.79,1.18,1.18,0,0,1,1.55,1.79Zm-1.66-3.3a1.18,1.18,0,1,1,1.66.12A1.18,1.18,0,0,1,224,272.61Zm4.82,3.32a1.18,1.18,0,0,1-1.67-.12,1.2,1.2,0,0,1,.12-1.67,1.18,1.18,0,0,1,1.55,1.79Zm-1.66-3.3a1.18,1.18,0,1,1,1.66.12A1.16,1.16,0,0,1,227.14,272.63Z" style="fill:none"/><path d="M209.8,260.1a1.18,1.18,0,0,0-.35-2,13.77,13.77,0,0,0-1.27,1.91A1.16,1.16,0,0,0,209.8,260.1Z" style="fill:#db3e51"/><path d="M211.3,256.83a1.18,1.18,0,1,0,1.78-1.55,1.13,1.13,0,0,0-.27-.22,12.93,12.93,0,0,0-1.54,1.16l-.2.18A1.13,1.13,0,0,0,211.3,256.83Z" style="fill:#db3e51"/><path d="M206.64,266.42a1.18,1.18,0,0,0,.11-1.67,1.29,1.29,0,0,0-.17-.16,13.26,13.26,0,0,0-.18,2A1.11,1.11,0,0,0,206.64,266.42Z" style="fill:#db3e51"/><path d="M206.76,267.92a1.44,1.44,0,0,0-.34-.27,13.92,13.92,0,0,0,.23,1.93A1.19,1.19,0,0,0,206.76,267.92Z" style="fill:#db3e51"/><path d="M209.8,266.44a1.18,1.18,0,1,0-1.67-.12A1.17,1.17,0,0,0,209.8,266.44Z" style="fill:#db3e51"/><path d="M213,263.3a1.18,1.18,0,1,0-1.67-.12A1.18,1.18,0,0,0,213,263.3Z" style="fill:#db3e51"/><path d="M216.13,260.16a1.18,1.18,0,1,0-1.66-.12A1.16,1.16,0,0,0,216.13,260.16Z" style="fill:#db3e51"/><path d="M209.81,263.28a1.19,1.19,0,0,0,.11-1.67,1.17,1.17,0,1,0-.11,1.67Z" style="fill:#db3e51"/><path d="M213,260.13a1.18,1.18,0,1,0-1.66-.12A1.17,1.17,0,0,0,213,260.13Z" style="fill:#db3e51"/><path d="M216.12,257a1.18,1.18,0,1,0-1.66-.12A1.19,1.19,0,0,0,216.12,257Z" style="fill:#db3e51"/><path d="M209.8,269.61a1.18,1.18,0,1,0-1.66-.12A1.17,1.17,0,0,0,209.8,269.61Z" style="fill:#db3e51"/><ellipse cx="209.03" cy="271.9" rx="1.18" ry="1.18" transform="translate(-96.72 116.52) rotate(-25.51)" style="fill:#db3e51"/><path d="M213,269.65a1.18,1.18,0,1,0-1.66-.12A1.19,1.19,0,0,0,213,269.65Z" style="fill:#db3e51"/><path d="M216.13,266.5a1.18,1.18,0,1,0-1.67-.12A1.18,1.18,0,0,0,216.13,266.5Z" style="fill:#db3e51"/><path d="M219.29,263.37a1.19,1.19,0,0,0,.11-1.67,1.17,1.17,0,0,0-1.66-.12,1.18,1.18,0,0,0,1.55,1.79Z" style="fill:#db3e51"/><path d="M211.3,266.36a1.18,1.18,0,1,0,.12-1.67A1.19,1.19,0,0,0,211.3,266.36Z" style="fill:#db3e51"/><path d="M214.46,263.22a1.18,1.18,0,1,0,.12-1.67A1.2,1.2,0,0,0,214.46,263.22Z" style="fill:#db3e51"/><path d="M217.63,260.07a1.18,1.18,0,0,0,1.66.12,1.2,1.2,0,0,0,.12-1.67,1.18,1.18,0,1,0-1.78,1.55Z" style="fill:#db3e51"/><path d="M209.82,275.75a1.18,1.18,0,0,0-1.54-1.79,15.5,15.5,0,0,0,1.34,1.93Z" style="fill:#db3e51"/><path d="M211.44,270.82a1.18,1.18,0,0,0-.12,1.67,1.18,1.18,0,1,0,.12-1.67Z" style="fill:#db3e51"/><path d="M213.11,274.12a1.18,1.18,0,1,0-1.78,1.54,1.16,1.16,0,0,0,1.66.12A1.18,1.18,0,0,0,213.11,274.12Z" style="fill:#db3e51"/><path d="M216.15,272.65a1.18,1.18,0,1,0-1.66-.12A1.19,1.19,0,0,0,216.15,272.65Z" style="fill:#db3e51"/><path d="M219.3,269.5a1.18,1.18,0,1,0-1.66-.12A1.18,1.18,0,0,0,219.3,269.5Z" style="fill:#db3e51"/><path d="M222.48,266.36a1.19,1.19,0,0,0,.11-1.67,1.17,1.17,0,0,0-1.66-.12,1.18,1.18,0,0,0,1.55,1.79Z" style="fill:#db3e51"/><path d="M216.16,269.47a1.18,1.18,0,1,0-1.67-.12A1.19,1.19,0,0,0,216.16,269.47Z" style="fill:#db3e51"/><path d="M217.76,264.53a1.18,1.18,0,1,0,1.66.12A1.18,1.18,0,0,0,217.76,264.53Z" style="fill:#db3e51"/><path d="M222.47,263.18a1.18,1.18,0,1,0-1.66-.12A1.16,1.16,0,0,0,222.47,263.18Z" style="fill:#db3e51"/><path d="M213.1,277.3a1.16,1.16,0,0,0-1.66-.12,1.14,1.14,0,0,0-.26.32,14.69,14.69,0,0,0,1.87,1.4A1.17,1.17,0,0,0,213.1,277.3Z" style="fill:#db3e51"/><path d="M216.27,274.14a1.18,1.18,0,1,0-.12,1.67A1.19,1.19,0,0,0,216.27,274.14Z" style="fill:#db3e51"/><path d="M214.6,277.2a1.18,1.18,0,1,0,1.66.12A1.17,1.17,0,0,0,214.6,277.2Z" style="fill:#db3e51"/><path d="M219.42,274.18a1.18,1.18,0,1,0-.11,1.67A1.18,1.18,0,0,0,219.42,274.18Z" style="fill:#db3e51"/><path d="M222.47,272.7a1.2,1.2,0,0,0,.12-1.67,1.18,1.18,0,1,0-.12,1.67Z" style="fill:#db3e51"/><path d="M225.63,269.56a1.18,1.18,0,1,0-1.66-.12A1.19,1.19,0,0,0,225.63,269.56Z" style="fill:#db3e51"/><path d="M219.31,272.67a1.18,1.18,0,1,0-1.66-.12A1.19,1.19,0,0,0,219.31,272.67Z" style="fill:#db3e51"/><path d="M222.47,269.53a1.18,1.18,0,1,0-1.66-.12A1.16,1.16,0,0,0,222.47,269.53Z" style="fill:#db3e51"/><path d="M225.64,266.38a1.18,1.18,0,1,0-1.67-.12A1.18,1.18,0,0,0,225.64,266.38Z" style="fill:#db3e51"/><path d="M215.43,280.09l.66.23A1.17,1.17,0,0,0,215.43,280.09Z" style="fill:#db3e51"/><path d="M217.77,277.23a1.18,1.18,0,1,0,1.66.12A1.19,1.19,0,0,0,217.77,277.23Z" style="fill:#db3e51"/><path d="M219.44,280.52a1.19,1.19,0,0,0-1.67-.12,1.08,1.08,0,0,0-.24.32,14.2,14.2,0,0,0,2.16.29A1.42,1.42,0,0,0,219.44,280.52Z" style="fill:#db3e51"/><ellipse cx="221.7" cy="278.15" rx="1.18" ry="1.18" transform="translate(-98.21 122.67) rotate(-25.52)" style="fill:#db3e51"/><path d="M224.09,274.12a1.18,1.18,0,1,0,1.66.12A1.17,1.17,0,0,0,224.09,274.12Z" style="fill:#db3e51"/><path d="M228.92,271.09a1.18,1.18,0,1,0-1.78,1.54,1.16,1.16,0,0,0,1.66.12A1.18,1.18,0,0,0,228.92,271.09Z" style="fill:#db3e51"/><path d="M222.58,274.21a1.16,1.16,0,0,0-1.66-.12,1.18,1.18,0,1,0,1.66.12Z" style="fill:#db3e51"/><path d="M225.76,271.06a1.18,1.18,0,1,0-1.78,1.55,1.17,1.17,0,0,0,1.66.12A1.19,1.19,0,0,0,225.76,271.06Z" style="fill:#db3e51"/><path d="M228.92,267.93a1.18,1.18,0,1,0-1.78,1.54,1.18,1.18,0,1,0,1.78-1.54Z" style="fill:#db3e51"/><path d="M222.59,280.56a1.18,1.18,0,0,0-1.67-.12,1.15,1.15,0,0,0-.36.59,13.62,13.62,0,0,0,2.21-.17A.92.92,0,0,0,222.59,280.56Z" style="fill:#db3e51"/><path d="M224.09,280.47l-.13.15c.42-.11.84-.23,1.25-.38A1.16,1.16,0,0,0,224.09,280.47Z" style="fill:#db3e51"/><path d="M228.92,277.44a1.18,1.18,0,1,0-1.78,1.54,1,1,0,0,0,.31.25,13.26,13.26,0,0,0,1.75-1.16A1.16,1.16,0,0,0,228.92,277.44Z" style="fill:#db3e51"/><path d="M232.08,274.3a1.18,1.18,0,1,0-1.78,1.55,1.19,1.19,0,0,0,.83.4,13,13,0,0,0,1.18-1.53A1,1,0,0,0,232.08,274.3Z" style="fill:#db3e51"/><path d="M224.1,277.29a1.18,1.18,0,1,0,1.66.12A1.19,1.19,0,0,0,224.1,277.29Z" style="fill:#db3e51"/><path d="M227.25,274.14a1.2,1.2,0,0,0-.12,1.67,1.18,1.18,0,1,0,.12-1.67Z" style="fill:#db3e51"/><path d="M230.41,271a1.18,1.18,0,1,0,1.66.12A1.18,1.18,0,0,0,230.41,271Z" style="fill:#db3e51"/><path d="M216.06,253.48l-.57.2A1.12,1.12,0,0,0,216.06,253.48Z" style="fill:#db3e51"/><path d="M217.68,253.32a1.18,1.18,0,0,0,1.66.12,1.21,1.21,0,0,0,.38-.65,13.67,13.67,0,0,0-2.2.29C217.57,253.16,217.62,253.24,217.68,253.32Z" style="fill:#db3e51"/><path d="M219.34,256.62a1.19,1.19,0,0,0,.11-1.67,1.16,1.16,0,0,0-1.66-.12,1.18,1.18,0,0,0,1.55,1.79Z" style="fill:#db3e51"/><path d="M220.83,253.35a1.17,1.17,0,0,0,1.66.12,1.1,1.1,0,0,0,.34-.52,13.29,13.29,0,0,0-2.27-.19A1.14,1.14,0,0,0,220.83,253.35Z" style="fill:#db3e51"/><path d="M222.5,256.64a1.18,1.18,0,1,0-1.67-.12A1.18,1.18,0,0,0,222.5,256.64Z" style="fill:#db3e51"/><path d="M224,253.38a1.17,1.17,0,0,0,1.46.26,15.07,15.07,0,0,0-1.62-.48C223.89,253.23,223.94,253.31,224,253.38Z" style="fill:#db3e51"/><path d="M220.83,259.7A1.18,1.18,0,1,0,221,258,1.19,1.19,0,0,0,220.83,259.7Z" style="fill:#db3e51"/><path d="M225.67,256.67a1.18,1.18,0,1,0-1.67-.12A1.17,1.17,0,0,0,225.67,256.67Z" style="fill:#db3e51"/><path d="M224,259.52a1.18,1.18,0,1,0,1.78-1.55,1.17,1.17,0,0,0-1.66-.12A1.19,1.19,0,0,0,224,259.52Z" style="fill:#db3e51"/><path d="M227.19,256.37a1.16,1.16,0,0,0,1.66.12,1.15,1.15,0,0,0,.39-.73,13.52,13.52,0,0,0-1.76-1.18l-.18.12A1.19,1.19,0,0,0,227.19,256.37Z" style="fill:#db3e51"/><path d="M224.14,261a1.18,1.18,0,1,0,1.66.12A1.19,1.19,0,0,0,224.14,261Z" style="fill:#db3e51"/><path d="M227.18,259.55a1.18,1.18,0,1,0,.12-1.67A1.2,1.2,0,0,0,227.18,259.55Z" style="fill:#db3e51"/><path d="M228.85,262.83A1.18,1.18,0,0,0,227.3,261a1.18,1.18,0,1,0,1.55,1.79Z" style="fill:#db3e51"/><path d="M230.46,257.91A1.18,1.18,0,1,0,232,259.7a1.16,1.16,0,0,0,.35-.55,16.39,16.39,0,0,0-1.15-1.52h0A1.11,1.11,0,0,0,230.46,257.91Z" style="fill:#db3e51"/><path d="M227.29,264.22a1.19,1.19,0,0,0-.11,1.67,1.17,1.17,0,0,0,1.66.12,1.18,1.18,0,0,0-1.55-1.79Z" style="fill:#db3e51"/><path d="M230.35,262.75a1.18,1.18,0,1,0,.12-1.67A1.18,1.18,0,0,0,230.35,262.75Z" style="fill:#db3e51"/><path d="M230.46,264.26a1.18,1.18,0,1,0,1.67.12A1.18,1.18,0,0,0,230.46,264.26Z" style="fill:#db3e51"/><path d="M233.5,262.78a1.17,1.17,0,0,0,.67.38,13.72,13.72,0,0,0-.68-1.92A1.18,1.18,0,0,0,233.5,262.78Z" style="fill:#db3e51"/><path d="M230.47,267.43a1.18,1.18,0,1,0,1.66.12A1.17,1.17,0,0,0,230.47,267.43Z" style="fill:#db3e51"/><path d="M233.62,264.28a1.19,1.19,0,0,0-.11,1.67,1.15,1.15,0,0,0,1.15.37,14.15,14.15,0,0,0-.29-2.32A1.13,1.13,0,0,0,233.62,264.28Z" style="fill:#db3e51"/><path d="M233.63,267.45a1.2,1.2,0,0,0-.12,1.67,1.18,1.18,0,0,0,.91.4,13.84,13.84,0,0,0,.25-2.32A1.2,1.2,0,0,0,233.63,267.45Z" style="fill:#db3e51"/><path d="M233.63,270.63a1.18,1.18,0,0,0-.12,1.67l.06.06a13,13,0,0,0,.67-2A1.2,1.2,0,0,0,233.63,270.63Z" style="fill:#db3e51"/><path d="M234.19,270.57a14.14,14.14,0,0,1-24.34,5.59c-.16-.18-.31-.36-.46-.56C213.78,277.81,224.51,281.39,234.19,270.57Z" style="fill:#db3d50;fill-rule:evenodd"/><g style="opacity:0.5"><path d="M184.22,370.17a8.4,8.4,0,1,1,8.41-8.4A8.41,8.41,0,0,1,184.22,370.17Zm0-13.66a5.26,5.26,0,1,0,5.26,5.26A5.26,5.26,0,0,0,184.22,356.51Z" style="fill:#e6e6e6"/></g><g id="Mask-8" data-name="Mask"><circle cx="111.88" cy="180.86" r="19.78" style="fill:#ff5a66"/></g><path d="M114.24,199.24a1.65,1.65,0,1,1,3.3,0,1.75,1.75,0,0,1-.13.65,19,19,0,0,0,3.47-1.38s0-.08,0-.12a1.67,1.67,0,0,1,1.63-1.68,1.63,1.63,0,0,1,.9.26c.33-.23.64-.47.95-.72a1.68,1.68,0,0,1-.61-1.25,1.65,1.65,0,0,1,3-1c.27-.3.53-.62.78-.94a1.63,1.63,0,0,1-.89-1.44,1.67,1.67,0,0,1,1.63-1.68,1.63,1.63,0,0,1,1.05.38c.19-.35.38-.71.54-1.08a1.68,1.68,0,0,1-.37-1,1.65,1.65,0,0,1,1.38-1.65,19.44,19.44,0,0,0,.68-3.26,1.75,1.75,0,0,1-.87.27,1.66,1.66,0,0,1,0-3.31,1.62,1.62,0,0,1,1.05.37,19.52,19.52,0,0,0-.41-3.77,1.61,1.61,0,0,1-1.08.43,1.65,1.65,0,0,1,0-3.3,1.51,1.51,0,0,1,.3,0,20.09,20.09,0,0,0-1.31-2.82,1.65,1.65,0,0,1-1.33-1.6,2.33,2.33,0,0,1,0-.38c-.28-.39-.58-.77-.89-1.13a1.61,1.61,0,0,1-.84.24,1.65,1.65,0,0,1-1.67-1.63,1.72,1.72,0,0,1,.24-.87c-.29-.25-.6-.49-.91-.73a1.64,1.64,0,0,1-2.66-1.27,1.75,1.75,0,0,1,0-.4c-.63-.33-1.27-.62-1.93-.89a1.68,1.68,0,0,1-.79-.29,19.91,19.91,0,0,0-4.1-1,1.51,1.51,0,0,1,.08.48,1.65,1.65,0,1,1-3.29.05,1.51,1.51,0,0,1,.13-.67,20.58,20.58,0,0,0-3.27.38,1.62,1.62,0,0,1,.2.76,1.64,1.64,0,0,1-3.28.12,19.67,19.67,0,0,0-5.83,3.45,1.68,1.68,0,0,1-1.6,2,1.83,1.83,0,0,1-.4-.05c-.33.38-.64.77-1,1.17a1.63,1.63,0,0,1-1.49,2.27,19.64,19.64,0,0,0-2.2,6.15,1.65,1.65,0,0,1,0,3.3,1.87,1.87,0,0,1-.34,0c0,.17,0,.33,0,.5a18.91,18.91,0,0,0,.22,2.63,1.48,1.48,0,0,1,.57-.11,1.65,1.65,0,0,1,.16,3.29,19.92,19.92,0,0,0,1.47,3.42,1.59,1.59,0,0,1,.49.85c.37.59.76,1.16,1.18,1.71a2.07,2.07,0,0,1,.55-.11,1.65,1.65,0,0,1,1.67,1.64,1.71,1.71,0,0,1-.17.74q.44.42.9.81a1.7,1.7,0,0,1,.94-.31,1.64,1.64,0,0,1,1.66,1.63,1.32,1.32,0,0,1-.07.49c.48.29,1,.56,1.48.81a1.33,1.33,0,0,1,.28,0,1.64,1.64,0,0,1,1.41.77,20.16,20.16,0,0,0,3.3.94,1.64,1.64,0,0,1,1.52-2.23,1.65,1.65,0,0,1,1.67,1.63,1.69,1.69,0,0,1-.27.93c.35,0,.71,0,1.08,0a20.57,20.57,0,0,0,2.62-.21A1.7,1.7,0,0,1,114.24,199.24Zm2.37-9.66a1.65,1.65,0,1,1,1.67,1.63A1.65,1.65,0,0,1,116.61,189.58Zm-17-14.23a1.65,1.65,0,1,1,1.67,1.63A1.65,1.65,0,0,1,99.65,175.35Zm-1,4.81a1.66,1.66,0,1,1,1.63-1.68A1.67,1.67,0,0,1,98.65,180.16Zm3.32-.42a1.66,1.66,0,1,1-1.63,1.68A1.65,1.65,0,0,1,102,179.74Zm1.24-1.71a1.65,1.65,0,1,1,1.67,1.63A1.65,1.65,0,0,1,103.21,178Zm4.28-4.88a1.66,1.66,0,1,1-1.63,1.68A1.66,1.66,0,0,1,107.49,173.15Zm-2.17,9.47a1.66,1.66,0,1,1-1.62,1.68A1.65,1.65,0,0,1,105.32,182.62Zm1.23-1.71a1.65,1.65,0,1,1,1.67,1.63A1.65,1.65,0,0,1,106.55,180.91Zm6.17-3.45a1.65,1.65,0,1,1-1.67-1.63A1.65,1.65,0,0,1,112.72,177.46Zm1-4.8a1.63,1.63,0,0,1,1.66,1.63,1.65,1.65,0,1,1-1.66-1.63Zm-5,12.84a1.66,1.66,0,1,1-1.63,1.68A1.65,1.65,0,0,1,108.68,185.5Zm1.22-1.7a1.65,1.65,0,1,1,1.67,1.63A1.65,1.65,0,0,1,109.9,183.8Zm2.88-3.39a1.65,1.65,0,1,1,1.67,1.63A1.65,1.65,0,0,1,112.78,180.41Zm4.48-5.07a1.65,1.65,0,1,1-1.63,1.67A1.64,1.64,0,0,1,117.26,175.34ZM114.89,185a1.66,1.66,0,1,1-1.63,1.68A1.66,1.66,0,0,1,114.89,185Zm1.24-1.71a1.65,1.65,0,1,1,1.67,1.63A1.65,1.65,0,0,1,116.13,183.29Zm7.05,2.45a1.65,1.65,0,1,1-1.66-1.63A1.65,1.65,0,0,1,123.18,185.74Zm1.21-5a1.65,1.65,0,1,1-1.63,1.67A1.64,1.64,0,0,1,124.39,180.72Zm-3.31.43a1.66,1.66,0,1,1,1.62-1.68A1.65,1.65,0,0,1,121.08,181.15Zm-2.32,16.33a1.66,1.66,0,1,1,1.63-1.68A1.66,1.66,0,0,1,118.76,197.48Zm3.3-3.77a1.66,1.66,0,1,1,1.63-1.68A1.65,1.65,0,0,1,122.06,193.71Zm2.85-3.4a1.65,1.65,0,1,1,1.63-1.67A1.64,1.64,0,0,1,124.91,190.31Zm4.5-5.07a1.65,1.65,0,1,1-1.66-1.63A1.65,1.65,0,0,1,129.41,185.24Zm-.5-6.27a1.65,1.65,0,1,1-1.67-1.63A1.65,1.65,0,0,1,128.91,179Zm-2.36-7.7a1.64,1.64,0,0,1,1.67,1.63,1.67,1.67,0,0,1-1.63,1.68,1.66,1.66,0,0,1,0-3.31Zm-1,4.8a1.65,1.65,0,1,1-1.67-1.63A1.65,1.65,0,0,1,125.56,176.07Zm-2.36-7.7a1.66,1.66,0,1,1-1.63,1.68A1.65,1.65,0,0,1,123.2,168.37Zm-1.21,5a1.65,1.65,0,1,1-3.29.05,1.67,1.67,0,0,1,1.63-1.68A1.64,1.64,0,0,1,122,173.39Zm-2.15-7.9a1.66,1.66,0,1,1-1.62,1.68A1.65,1.65,0,0,1,119.84,165.49Zm-1.6,5.4a1.65,1.65,0,1,1-1.67-1.63A1.65,1.65,0,0,1,118.24,170.89Zm-2.17-7.9a1.66,1.66,0,1,1-1.63,1.68A1.65,1.65,0,0,1,116.07,163Zm-2.85,3.39a1.66,1.66,0,1,1-1.63,1.68A1.67,1.67,0,0,1,113.22,166.38Zm-1.21,5a1.65,1.65,0,1,1-1.67-1.63A1.67,1.67,0,0,1,112,171.41Zm-2.15-7.92a1.66,1.66,0,1,1-1.63,1.68A1.65,1.65,0,0,1,109.86,163.49ZM107,166.88a1.66,1.66,0,1,1-1.63,1.68A1.66,1.66,0,0,1,107,166.88Zm-1.21,5a1.65,1.65,0,1,1-1.67-1.63A1.65,1.65,0,0,1,105.8,171.91ZM103.65,164a1.66,1.66,0,1,1-1.63,1.68A1.65,1.65,0,0,1,103.65,164Zm-2.87,3.38a1.66,1.66,0,1,1-1.63,1.68A1.65,1.65,0,0,1,100.78,167.38Zm-2.86,3.39a1.66,1.66,0,1,1-1.62,1.68A1.65,1.65,0,0,1,97.92,170.77Zm-4.5,5.07a1.65,1.65,0,1,1,1.67,1.64A1.65,1.65,0,0,1,93.42,175.84Zm.71,6.08a1.65,1.65,0,1,1,1.67,1.63A1.65,1.65,0,0,1,94.13,181.92Zm2.15,7.9a1.66,1.66,0,1,1,1.63-1.68A1.65,1.65,0,0,1,96.28,189.82Zm1.21-5a1.65,1.65,0,1,1,3.29-.05,1.67,1.67,0,0,1-1.63,1.68A1.64,1.64,0,0,1,97.49,184.8Zm2.15,7.92a1.66,1.66,0,1,1,1.62-1.68A1.65,1.65,0,0,1,99.64,192.72Zm1.18-5a1.65,1.65,0,1,1,1.67,1.63A1.65,1.65,0,0,1,100.82,187.69ZM103,195.6a1.66,1.66,0,1,1,1.63-1.68A1.65,1.65,0,0,1,103,195.6Zm1.19-5a1.65,1.65,0,1,1,1.66,1.63A1.66,1.66,0,0,1,104.18,190.57Zm2.16,7.92a1.63,1.63,0,0,1-1.66-1.63,1.65,1.65,0,1,1,1.66,1.63Zm2.86-3.39a1.66,1.66,0,1,1,1.63-1.68A1.65,1.65,0,0,1,109.2,195.1Zm1.2-5a1.65,1.65,0,1,1,1.67,1.63A1.65,1.65,0,0,1,110.4,190.07Zm2.15,7.91a1.66,1.66,0,1,1,1.63-1.68A1.67,1.67,0,0,1,112.55,198Zm1.21-5a1.65,1.65,0,1,1,1.67,1.63A1.65,1.65,0,0,1,113.76,193Z" style="fill:none"/><path d="M106.55,163.92a1.65,1.65,0,0,0,1.62-1.68,1.62,1.62,0,0,0-.2-.76,18.76,18.76,0,0,0-3.08.88A1.64,1.64,0,0,0,106.55,163.92Z" style="fill:#db3e51"/><path d="M111.11,161.77a1.65,1.65,0,1,0,3.29-.05,1.51,1.51,0,0,0-.08-.48,20.18,20.18,0,0,0-2.7-.15h-.38A1.51,1.51,0,0,0,111.11,161.77Z" style="fill:#db3e51"/><path d="M97.46,167.81a1.68,1.68,0,0,0,1.6-2,19.37,19.37,0,0,0-2,1.95A1.83,1.83,0,0,0,97.46,167.81Z" style="fill:#db3e51"/><path d="M96.24,169.53a1.65,1.65,0,0,0-.13-.6,21.65,21.65,0,0,0-1.49,2.27A1.66,1.66,0,0,0,96.24,169.53Z" style="fill:#db3e51"/><path d="M100.82,170.69a1.66,1.66,0,1,0-1.67-1.63A1.67,1.67,0,0,0,100.82,170.69Z" style="fill:#db3e51"/><path d="M107.05,170.19a1.66,1.66,0,0,0,0-3.31,1.66,1.66,0,0,0,0,3.31Z" style="fill:#db3e51"/><path d="M113.26,169.69a1.66,1.66,0,0,0,0-3.31,1.67,1.67,0,0,0-1.63,1.68A1.63,1.63,0,0,0,113.26,169.69Z" style="fill:#db3e51"/><path d="M103.69,167.31a1.66,1.66,0,1,0-1.67-1.63A1.65,1.65,0,0,0,103.69,167.31Z" style="fill:#db3e51"/><path d="M109.9,166.8a1.66,1.66,0,1,0-1.67-1.63A1.67,1.67,0,0,0,109.9,166.8Z" style="fill:#db3e51"/><path d="M116.11,166.3a1.66,1.66,0,1,0-1.67-1.63A1.65,1.65,0,0,0,116.11,166.3Z" style="fill:#db3e51"/><path d="M98,174.08a1.66,1.66,0,1,0-1.66-1.63A1.65,1.65,0,0,0,98,174.08Z" style="fill:#db3e51"/><ellipse cx="95.07" cy="175.82" rx="1.65" ry="1.65" transform="translate(-99.11 223.21) rotate(-75.32)" style="fill:#db3e51"/><path d="M101.32,177a1.66,1.66,0,1,0-1.67-1.63A1.66,1.66,0,0,0,101.32,177Z" style="fill:#db3e51"/><path d="M107.53,176.46a1.66,1.66,0,1,0-1.67-1.63A1.65,1.65,0,0,0,107.53,176.46Z" style="fill:#db3e51"/><path d="M113.74,176a1.65,1.65,0,0,0,1.62-1.68,1.63,1.63,0,0,0-1.66-1.63,1.66,1.66,0,0,0,0,3.31Z" style="fill:#db3e51"/><path d="M102.5,172a1.65,1.65,0,1,0,1.63-1.67A1.65,1.65,0,0,0,102.5,172Z" style="fill:#db3e51"/><path d="M108.71,171.46a1.65,1.65,0,1,0,1.63-1.68A1.65,1.65,0,0,0,108.71,171.46Z" style="fill:#db3e51"/><path d="M114.94,170.94a1.65,1.65,0,1,0,1.63-1.68A1.65,1.65,0,0,0,114.94,170.94Z" style="fill:#db3e51"/><path d="M92.45,180.65a1.65,1.65,0,0,0,0-3.3,19.59,19.59,0,0,0-.31,3.27A1.87,1.87,0,0,0,92.45,180.65Z" style="fill:#db3e51"/><path d="M98.61,176.85a1.66,1.66,0,0,0,0,3.31,1.67,1.67,0,0,0,1.63-1.68A1.64,1.64,0,0,0,98.61,176.85Z" style="fill:#db3e51"/><path d="M97.43,181.87a1.65,1.65,0,1,0-1.63,1.68A1.65,1.65,0,0,0,97.43,181.87Z" style="fill:#db3e51"/><path d="M102,183.05a1.66,1.66,0,1,0-1.67-1.63A1.65,1.65,0,0,0,102,183.05Z" style="fill:#db3e51"/><path d="M108.22,182.54a1.67,1.67,0,0,0,1.63-1.68,1.65,1.65,0,1,0-1.63,1.68Z" style="fill:#db3e51"/><path d="M114.45,182a1.66,1.66,0,1,0-1.67-1.63A1.64,1.64,0,0,0,114.45,182Z" style="fill:#db3e51"/><path d="M104.88,179.66a1.66,1.66,0,1,0-1.67-1.63A1.66,1.66,0,0,0,104.88,179.66Z" style="fill:#db3e51"/><path d="M111.05,175.83a1.66,1.66,0,1,0,1.67,1.63A1.67,1.67,0,0,0,111.05,175.83Z" style="fill:#db3e51"/><path d="M117.3,178.64a1.65,1.65,0,1,0-1.67-1.63A1.65,1.65,0,0,0,117.3,178.64Z" style="fill:#db3e51"/><path d="M94.55,185.27a1.63,1.63,0,0,0-1.66-1.63,1.48,1.48,0,0,0-.57.11,19.84,19.84,0,0,0,.73,3.18A1.64,1.64,0,0,0,94.55,185.27Z" style="fill:#db3e51"/><path d="M100.78,184.75a1.65,1.65,0,1,0-1.63,1.68A1.65,1.65,0,0,0,100.78,184.75Z" style="fill:#db3e51"/><path d="M96.24,186.51a1.66,1.66,0,1,0,1.67,1.63A1.67,1.67,0,0,0,96.24,186.51Z" style="fill:#db3e51"/><path d="M104.12,187.65a1.65,1.65,0,1,0-1.63,1.67A1.64,1.64,0,0,0,104.12,187.65Z" style="fill:#db3e51"/><path d="M108.72,188.81a1.66,1.66,0,1,0-1.67-1.63A1.67,1.67,0,0,0,108.72,188.81Z" style="fill:#db3e51"/><path d="M114.93,188.31a1.66,1.66,0,1,0-1.67-1.63A1.65,1.65,0,0,0,114.93,188.31Z" style="fill:#db3e51"/><path d="M105.36,185.93a1.66,1.66,0,1,0-1.66-1.63A1.65,1.65,0,0,0,105.36,185.93Z" style="fill:#db3e51"/><path d="M111.57,185.43a1.66,1.66,0,1,0-1.67-1.63A1.65,1.65,0,0,0,111.57,185.43Z" style="fill:#db3e51"/><path d="M117.8,184.92a1.66,1.66,0,1,0-1.67-1.63A1.67,1.67,0,0,0,117.8,184.92Z" style="fill:#db3e51"/><path d="M94.52,190.35c.16.28.32.57.49.85A1.59,1.59,0,0,0,94.52,190.35Z" style="fill:#db3e51"/><path d="M99.6,189.41a1.66,1.66,0,1,0,1.66,1.63A1.65,1.65,0,0,0,99.6,189.41Z" style="fill:#db3e51"/><path d="M98.41,194.44a1.65,1.65,0,0,0-1.67-1.64,2.07,2.07,0,0,0-.55.11,20.1,20.1,0,0,0,2,2.27A1.71,1.71,0,0,0,98.41,194.44Z" style="fill:#db3e51"/><ellipse cx="102.97" cy="193.94" rx="1.65" ry="1.65" transform="translate(-110.73 244.44) rotate(-75.33)" style="fill:#db3e51"/><path d="M109.16,191.79a1.66,1.66,0,1,0,1.67,1.63A1.65,1.65,0,0,0,109.16,191.79Z" style="fill:#db3e51"/><path d="M117.06,192.9a1.65,1.65,0,1,0-1.63,1.68A1.66,1.66,0,0,0,117.06,192.9Z" style="fill:#db3e51"/><path d="M107.47,190.52a1.65,1.65,0,1,0-1.63,1.68A1.65,1.65,0,0,0,107.47,190.52Z" style="fill:#db3e51"/><path d="M113.7,190a1.65,1.65,0,1,0-1.63,1.67A1.64,1.64,0,0,0,113.7,190Z" style="fill:#db3e51"/><path d="M119.91,189.53a1.65,1.65,0,1,0-1.63,1.68A1.65,1.65,0,0,0,119.91,189.53Z" style="fill:#db3e51"/><path d="M101.74,197.31a1.64,1.64,0,0,0-1.66-1.63,1.7,1.7,0,0,0-.94.31,20.43,20.43,0,0,0,2.53,1.81A1.32,1.32,0,0,0,101.74,197.31Z" style="fill:#db3e51"/><path d="M103.43,198.58a1.33,1.33,0,0,0-.28,0c.55.27,1.11.52,1.69.74A1.64,1.64,0,0,0,103.43,198.58Z" style="fill:#db3e51"/><path d="M111.33,199.69a1.65,1.65,0,1,0-3.3.05,1.68,1.68,0,0,0,.11.55,19.91,19.91,0,0,0,2.92.33A1.69,1.69,0,0,0,111.33,199.69Z" style="fill:#db3e51"/><path d="M117.54,199.2a1.65,1.65,0,1,0-3.3,0,1.7,1.7,0,0,0,.52,1.19,20.78,20.78,0,0,0,2.65-.58A1.75,1.75,0,0,0,117.54,199.2Z" style="fill:#db3e51"/><path d="M106.3,195.18a1.66,1.66,0,0,0-1.62,1.68,1.65,1.65,0,1,0,3.29,0A1.65,1.65,0,0,0,106.3,195.18Z" style="fill:#db3e51"/><path d="M112.51,194.67a1.66,1.66,0,0,0,0,3.31,1.66,1.66,0,0,0,0-3.31Z" style="fill:#db3e51"/><path d="M118.72,194.17a1.66,1.66,0,1,0,1.67,1.63A1.66,1.66,0,0,0,118.72,194.17Z" style="fill:#db3e51"/><path d="M119.21,162.49l-.79-.29A1.68,1.68,0,0,0,119.21,162.49Z" style="fill:#db3e51"/><path d="M121.09,163.78a1.64,1.64,0,0,0,2.66,1.27,21,21,0,0,0-2.61-1.67A1.75,1.75,0,0,0,121.09,163.78Z" style="fill:#db3e51"/><path d="M119.88,168.8a1.66,1.66,0,1,0-1.66-1.63A1.65,1.65,0,0,0,119.88,168.8Z" style="fill:#db3e51"/><path d="M124.42,166.65a1.65,1.65,0,0,0,1.67,1.63,1.61,1.61,0,0,0,.84-.24,18.64,18.64,0,0,0-2.27-2.26A1.72,1.72,0,0,0,124.42,166.65Z" style="fill:#db3e51"/><path d="M123.24,171.68a1.66,1.66,0,1,0-1.67-1.63A1.66,1.66,0,0,0,123.24,171.68Z" style="fill:#db3e51"/><path d="M127.78,169.55a1.65,1.65,0,0,0,1.33,1.6,18.67,18.67,0,0,0-1.29-2A2.33,2.33,0,0,0,127.78,169.55Z" style="fill:#db3e51"/><path d="M118.7,173.44a1.65,1.65,0,1,0,1.63-1.68A1.67,1.67,0,0,0,118.7,173.44Z" style="fill:#db3e51"/><path d="M126.59,174.58a1.67,1.67,0,0,0,1.63-1.68,1.65,1.65,0,1,0-1.63,1.68Z" style="fill:#db3e51"/><path d="M122.26,176.12a1.65,1.65,0,1,0,1.63-1.68A1.65,1.65,0,0,0,122.26,176.12Z" style="fill:#db3e51"/><path d="M128.49,175.62a1.64,1.64,0,0,0,1.67,1.63,1.61,1.61,0,0,0,1.08-.43,20.74,20.74,0,0,0-.82-2.85,1.51,1.51,0,0,0-.3,0A1.65,1.65,0,0,0,128.49,175.62Z" style="fill:#db3e51"/><path d="M121,177.84a1.66,1.66,0,1,0,1.66,1.63A1.64,1.64,0,0,0,121,177.84Z" style="fill:#db3e51"/><path d="M125.62,179a1.65,1.65,0,1,0,1.62-1.68A1.64,1.64,0,0,0,125.62,179Z" style="fill:#db3e51"/><path d="M124.43,184a1.65,1.65,0,1,0-1.67-1.63A1.65,1.65,0,0,0,124.43,184Z" style="fill:#db3e51"/><path d="M130.6,180.22a1.66,1.66,0,0,0,0,3.31,1.75,1.75,0,0,0,.87-.27,19.36,19.36,0,0,0,.14-2.65v0A1.62,1.62,0,0,0,130.6,180.22Z" style="fill:#db3e51"/><path d="M121.52,184.11a1.66,1.66,0,1,0,1.66,1.63A1.65,1.65,0,0,0,121.52,184.11Z" style="fill:#db3e51"/><path d="M126.12,185.29a1.65,1.65,0,1,0,1.63-1.68A1.66,1.66,0,0,0,126.12,185.29Z" style="fill:#db3e51"/><path d="M124.87,187a1.65,1.65,0,1,0,1.67,1.63A1.65,1.65,0,0,0,124.87,187Z" style="fill:#db3e51"/><path d="M129.45,188.17a1.68,1.68,0,0,0,.37,1,18.46,18.46,0,0,0,1-2.66A1.65,1.65,0,0,0,129.45,188.17Z" style="fill:#db3e51"/><path d="M122,190.4a1.66,1.66,0,1,0,1.67,1.63A1.65,1.65,0,0,0,122,190.4Z" style="fill:#db3e51"/><path d="M128.23,189.88a1.67,1.67,0,0,0-1.63,1.68,1.63,1.63,0,0,0,.89,1.44,19.84,19.84,0,0,0,1.79-2.74A1.63,1.63,0,0,0,128.23,189.88Z" style="fill:#db3e51"/><path d="M125.37,193.28a1.65,1.65,0,0,0-1.63,1.68,1.68,1.68,0,0,0,.61,1.25,19.48,19.48,0,0,0,2.36-2.27A1.64,1.64,0,0,0,125.37,193.28Z" style="fill:#db3e51"/><path d="M122.5,196.67a1.67,1.67,0,0,0-1.63,1.68s0,.08,0,.12a18.45,18.45,0,0,0,2.52-1.54A1.63,1.63,0,0,0,122.5,196.67Z" style="fill:#db3e51"/><path d="M178.59,315.38c1.22,4.91,18.37,13.27,20.32,8.41s1-15.19-5.41-17S177.36,310.47,178.59,315.38Z" style="fill:#e6e6e6;fill-rule:evenodd;opacity:0.5"/><ellipse cx="187.5" cy="454.44" rx="64.72" ry="9.02" style="fill:#e6e6e6;opacity:0.75"/><g style="mask:url(#mask)"><path id="Fill-3" d="M247.58,396.51c.44.32.93.6,1.37.93a9.29,9.29,0,0,1-2.33,16.1A50.36,50.36,0,0,1,240,415.2c-.76.18-1.52.34-2.33.51a9.72,9.72,0,0,1,.62,1.84,8.32,8.32,0,0,1,.17,1.19c.31.15.61.3.89.47,2.18-.43,4.35-.88,6.5-1.41,5.7-1.41,9.28-4.93,10.42-10.49s-.79-10-5.44-13.3c-.4-.29-.84-.53-1.22-.83a8.72,8.72,0,0,1-3.55-8.73,8.83,8.83,0,0,1,6-7.4,70.49,70.49,0,0,1,7.29-1.79l.94-.21c-.16-1.25-.36-2.49-.63-3.72l-.09,0c-2.3.45-4.61.93-6.89,1.49-5.59,1.39-9.12,4.86-10.31,10.29s.65,10,5.27,13.38" style="fill:#3d444f;fill-rule:evenodd"/></g><g style="mask:url(#mask-2-2)"><path id="Fill-4" d="M267.28,358.48a.61.61,0,0,0-.4-.36.59.59,0,0,0-.51.08,11.58,11.58,0,0,0,8.92,20.91.61.61,0,0,0,.41-.31.64.64,0,0,0,0-.54Zm-7.79,15a14.55,14.55,0,0,1,5.22-17.75,3.59,3.59,0,0,1,5.3,1.58l8.44,19.77a3.59,3.59,0,0,1-.12,3.07,3.53,3.53,0,0,1-2.42,1.85,14.55,14.55,0,0,1-16.42-8.52Z" style="fill:#2a2e35;fill-rule:evenodd"/></g><g style="mask:url(#mask-2-2)"><path id="Fill-5" d="M273.6,375.67l-6-14.12a2.56,2.56,0,0,1,4.71-2l6,14.12a2.56,2.56,0,1,1-4.7,2" style="fill:#7448ff;fill-rule:evenodd"/></g><g style="mask:url(#mask-4)"><path id="Fill-6" d="M237.53,418.49a11.61,11.61,0,0,0-14.69,1.19.62.62,0,0,0-.18.49.65.65,0,0,0,.27.47l17.65,12.28a.62.62,0,0,0,.53.09.6.6,0,0,0,.4-.33,11.6,11.6,0,0,0-4-14.19m1.36,16.86-17.65-12.28a3.62,3.62,0,0,1-1.53-2.66,3.53,3.53,0,0,1,1.07-2.85,14.55,14.55,0,0,1,23.44,16.31,3.6,3.6,0,0,1-2.31,2,3.56,3.56,0,0,1-3-.52" style="fill:#2a2e35;fill-rule:evenodd"/></g><g style="mask:url(#mask-4)"><path id="Fill-7" d="M226.11,421.7l12.6,8.77a2.56,2.56,0,0,1-2.93,4.2l-12.6-8.77a2.56,2.56,0,0,1,2.93-4.2" style="fill:#7448ff;fill-rule:evenodd"/></g><path d="M317.8,67.12s10.33-12.56,14.53-8.43S318.67,72.6,318.67,72.6Z" style="fill:#e6e6e6"/><path d="M328.78,144.47s18.9,2.62,17.66,8.82-17.53-3.1-17.53-3.1Z" style="fill:#e6e6e6"/><path d="M289.05,115.21s5.32,3.58,8.07,0,8.73-11.92,3.8-17.39-14.33,9.91-14.33,9.91" style="fill:#e6e6e6"/><path d="M191.1,222.28l3,4s2.37-1.91,5.45-4.43L195,216.64Z" style="fill:#e6e6e6"/><path d="M190.34,220h0c-1.87.1-3.09,2.14-2.52,4.22l2.74,10.05.93,3.24a3.17,3.17,0,0,0,4.11,2.29s0,0,.05,0c.06.26-.62-7.52-.62-7.52l-.8-6.59c0-.14,0-.28-.07-.42l-.59-2.55A3.33,3.33,0,0,0,190.34,220Z" style="fill:#2a2e35"/><path d="M224.56,200.65c9.22-8.84,34-36.74,34-36.74l6.07-5.87-12.83-12.12-4-10.62c-10.91,6.84-15.69,19.86-16.28,26.11s-18.81,29.47-18.81,29.47L195,216.64l4.56,5.23C206.81,215.94,219.71,205.3,224.56,200.65Z" style="fill:#363c44"/><path d="M289.6,102.83l2.89.62,4.55-2.83s5,5.34,5.79,5.36,3-.82,1.95-3-2.66-6-5.37-7.15-5.91.21-5.91.21L289,101.1Z" style="fill:#51576b"/><path d="M286.82,128.16s-6.2-4.54-8.63.44,2.55,8.84,2.55,8.84l48.17,12.75-.13-5.72Z" style="fill:#e6e6e6"/><path d="M293,101.1s-5.3,5.89-9.56,4.17,3.78-14,3.78-14,24.43-21.59,32.93-25.86l1.94,5.16Z" style="fill:#e6e6e6"/><path d="M291.72,87.24s4.64,6.6,4.81,11.2l-7.49,6.1s2.65,3.37,1.22,10.65c0,0-2.56,8.88-1.31,10.88a18.35,18.35,0,0,0,2.92,3.41.41.41,0,0,1,.08.5c-.72,1.37-3.82,7.19-5,8.94a.65.65,0,0,1-.66.26l-6.5-1.34a.41.41,0,0,0-.44.18l-4.5,6.53-9-3.34a7.78,7.78,0,0,1-1.59-.77c-2.41-1.48-10.48-5.17-13.19-5.36,0,0-5.3.23-4.8.13s16.47-14.65,21-22,7.31-12.15,10.59-15.73S291.72,87.24,291.72,87.24Z" style="fill:#da3e51"/><path d="M243.69,138.4l2-2.62,3.46-3c4.9-4.46,14.78-14.06,18.19-19.6,4.53-7.38,7.31-12.16,10.59-15.74s13.83-10.22,13.83-10.22a39.4,39.4,0,0,1,2.67,4.52v0s-9.9,7-23.46,25.14a90.62,90.62,0,0,1-18,18.54A16,16,0,0,1,243.69,138.4Z" style="fill:#c43850"/><path d="M292.19,205l4.51.91a51.85,51.85,0,0,0,1.74-6.6l-6.84-1.14Z" style="fill:#e6e6e6"/><path d="M290.12,203.71h0a3.14,3.14,0,0,0,.69,4.83l8.38,5.92,2.74,1.88a3.16,3.16,0,0,0,4.59-.88s0,0,.05,0c.21.16-5.17-5.34-5.17-5.34l-4.73-4.53-.32-.26-2-1.58A3.29,3.29,0,0,0,290.12,203.71Z" style="fill:#2a2e35"/><path d="M239.05,143.56l5.27-6.64c2.49-3.13,7.72-3.49,11.34-1.76,10.27,4.91,30.52,14.68,38.62,19.33,1,.57,2.21,1.32,3.58,2.18l-8.33,12.38-1.28-.42s-27.4-10.95-33.58-9.76c-3.53.68-5.29,1.07-9.46-.64A11.39,11.39,0,0,1,239.05,143.56Z" style="fill:#51576b"/><path d="M289,168.4l14.66,2.8c-1.25,7.88-3.71,20.5-5.24,28.14l-6.84-1.14Z" style="fill:#51576b"/><ellipse cx="250.27" cy="146.63" rx="12.68" ry="11.79" transform="translate(-11.12 272.38) rotate(-56.06)" style="fill:#51576b"/><path d="M296.82,156l4.11,2.47a7.64,7.64,0,0,1,3.6,7.87l-.85,4.82-14.15-2.15Z" style="fill:#51576b"/><path d="M68.66,313.46a7.19,7.19,0,0,1-2.9-5.06,13.65,13.65,0,0,1,5.57-12.83c8.59-6.48,13.28,7.34,16.77,9.05s8.8,3.63,8.8,3.63,2.15,5.33-1.92,5.62-6.83-3.27-8.54.22-.38,4-5.34,4C76,318.15,71.28,315.38,68.66,313.46Z" style="fill:#e6e6e6"/><path d="M49,313.06S34.72,315,34.5,309.42s17.28-.71,17.28-.71Z" style="fill:#e6e6e6"/><polygon points="172.43 351.36 176.4 354.77 167.22 355.88 166.96 350.23 172.43 351.36" style="fill:#e6e6e6"/><path d="M169,348.92h0a2.25,2.25,0,0,1,3.24-1.16l6.59,3.85,2.15,1.29a2.25,2.25,0,0,1,.6,3.43c0,.06-.08.09,0,.11s-5.09-1.67-5.09-1.67l-4.25-1.6a2.1,2.1,0,0,1-.53-.29l-1.88-1.36A2.25,2.25,0,0,1,169,348.92Z" style="fill:#2a2e35"/><path d="M167,350.23l-21.6-4.48c1.38-7.12,4.15-20,6.62-22.7,2-2.14,3-3.21,3.56-6.74v-.11l0-.27a8.39,8.39,0,0,0,.08-1.59c-.22-5.3-5.49-6.74-11.19-6.5-2.29.1-3.91-1.77-5.57-.52a8.75,8.75,0,0,0-3.82,6.33c-1,9.22-2.79,27.45-3,35.06,0,.93,0,2.09,0,3.41l.05.79a4.94,4.94,0,0,0,5.06,4.68l6.77-.17c6.5-.26,17-1,23.27-1.54Z" style="fill:#363c44"/><path d="M133.93,325.11s-4-13,2.45-17.59a11.79,11.79,0,0,1,13.24-.76,9.78,9.78,0,0,0,5.41,1.29l62.47-4L218,309S150.46,331,133.93,325.11Z" style="fill:#51576b"/><path d="M93.7,311.72s7.8,3,8.2-2.13-5.25-6.79-5.25-6.79l-46.12,5.47,2.07,4.91Z" style="fill:#e6e6e6"/><polyline points="217.99 308.96 221.34 308.2 221.1 303.64 217.5 304.09" style="fill:#e6e6e6"/><path d="M222.06,303.2h0a2.71,2.71,0,0,1,3.25,2.63l.07,8.24v2.65a2.59,2.59,0,0,1-3,2.69c-.07,0-.11,0-.11,0,0,.21-1.31-5.84-1.31-5.84l-.92-5.18c0-.11,0-.22,0-.33L219.9,306A2.72,2.72,0,0,1,222.06,303.2Z" style="fill:#2a2e35"/><path d="M143.4,305.06c-2.47,4.11-5.14,7.26-5.08,12.22-5.75-.54-26.58-2.81-34.13-7.27-7.35-4.34-13-3.49-14.61-3.1.34-2.56,1.46-4.61,3.9-5.38,8.65-2.7,25.52,3.77,31.9,3.61l17.81-.47A.25.25,0,0,1,143.4,305.06Z" style="fill:#da3e51"/><path d="M138.32,317.28a48.48,48.48,0,0,1-.88,11,.63.63,0,0,1-.76.46,71.21,71.21,0,0,0-20.87-1.8c-8.7.6-17.19-1.78-21-3a4.41,4.41,0,0,1-2.77-2.69c-1.15-3.19-3.14-9.62-2.51-14.34,1.65-.39,7.26-1.24,14.61,3.1C111.74,314.47,132.57,316.74,138.32,317.28Z" style="fill:#c43850"/><path d="M50.79,308.27l-4.32-.86a6.44,6.44,0,0,0-2.83.07l-8.16,2a.44.44,0,0,0,0,.86c3,.76,9,2.29,10.4,2.58a43.65,43.65,0,0,0,6.72.25Z" style="fill:#e6e6e6"/><path d="M100.24,308a5.89,5.89,0,0,0-5,2.08,6.72,6.72,0,0,0-1.54,5.24l4.75,40,1,3.58.55,0a2.6,2.6,0,0,0,1.65-.63,3.23,3.23,0,0,0,1.09-2.35l.87-40.55S105.39,308.36,100.24,308Z" style="fill:#e6e6e6"/><path d="M102.5,356.48a2.68,2.68,0,0,1-1.11,2c-2.68,1.91-9.8,6.54-11.85,3.37-2.55-3.92,13.18-8.56,13.18-8.56Z" style="fill:#e6e6e6"/><path d="M68,313a1.55,1.55,0,0,0,.69-.16,3.24,3.24,0,0,0,1.19-1c1.29-1.45,2-3.32,3.43-4.69a3.14,3.14,0,0,1,2.24-.63,4.82,4.82,0,0,1,2.27.55,1.2,1.2,0,0,0,1.83-.5v0a.16.16,0,0,0,0-.08.38.38,0,0,0,0-.1h0v-.07c0-.62-.74-1.43-1.18-2.07,0,0,0-.09-.07-.12l0-.05a1.3,1.3,0,0,1-.13-.3h0l0-.15a1.67,1.67,0,0,1-.06-.29c0-.05,0-.09,0-.14s0-.05,0-.08v-.22a.78.78,0,0,1,0-.22v0a2.15,2.15,0,0,1,.54-1c.78-.84,2.2-.67,3.18-.19a3.93,3.93,0,0,1,2,2.18,2.66,2.66,0,0,0,.23.52c.09.13.18.11.33.08a5.7,5.7,0,0,0,1.22-.43,3.13,3.13,0,0,0,1.57-2.62,10.08,10.08,0,0,0,0-1.65,9.39,9.39,0,0,0-.19-1.67A4.44,4.44,0,0,0,85,295.12a12.74,12.74,0,0,0-3.45-1.42,17.34,17.34,0,0,0-4.41-.64,10.33,10.33,0,0,0-4,.63,6.82,6.82,0,0,0-.75-3.95A12.46,12.46,0,0,0,68,286a6.87,6.87,0,0,0-2.84-.56A4.17,4.17,0,0,0,62.29,287c-.07.09-.11.2-.18.29s-.15.08-.27.09a2.65,2.65,0,0,0-.87.22,3.86,3.86,0,0,0-1.51,1.2,4.26,4.26,0,0,0-.85,1.78,3.29,3.29,0,0,0,.07,1.84c.1.23.21.41.06.63s-.33.41-.47.64a4.14,4.14,0,0,0-.58,1.71,3.32,3.32,0,0,0,.29,1.75,4.87,4.87,0,0,0,1.12,1.4,12.05,12.05,0,0,0,3,2.42,8,8,0,0,0,4,.76,14.41,14.41,0,0,0-1,4.56,14.15,14.15,0,0,0,2.2,6.23C67.48,312.73,67.65,313,68,313Z" style="fill:#2a2e35;fill-rule:evenodd"/><path d="M271.27,62c-.51-7.26-22.75-23.4-26.73-17s-5.16,21.3,3.42,25.49S271.78,69.25,271.27,62Z" style="fill:#e6e6e6;fill-rule:evenodd;opacity:0.5"/><g style="opacity:0.5"><path d="M149.19,254a2.09,2.09,0,0,1-2.35-3.42l20.89-18.84a2.09,2.09,0,1,1,2.8,3.11l-20.89,18.84A2.26,2.26,0,0,1,149.19,254Z" style="fill:#e6e6e6"/></g><g style="opacity:0.5"><path d="M192.71,161.79a10.29,10.29,0,0,1-14.1-3.58,2.09,2.09,0,0,1,3.6-2.14,6.1,6.1,0,1,0,10.48-6.24,2.09,2.09,0,0,1,3.59-2.14A10.3,10.3,0,0,1,192.71,161.79Z" style="fill:#e6e6e6"/></g><g style="opacity:0.5"><path d="M175.1,29.76a2.21,2.21,0,0,1-.46-.5,2.1,2.1,0,0,1,.59-2.9l23.49-15.49a2.09,2.09,0,1,1,2.3,3.49l-23.48,15.5A2.1,2.1,0,0,1,175.1,29.76Z" style="fill:#e6e6e6"/></g><g style="opacity:0.5"><circle cx="231.01" cy="110.98" r="7.37" style="fill:#e6e6e6"/></g><g style="opacity:0.5"><circle cx="305.74" cy="20.09" r="7.37" style="fill:#e6e6e6"/></g><g style="opacity:0.5"><path d="M265.66,228.52a2.12,2.12,0,0,1-1.44-.44l-22.09-17.43a2.09,2.09,0,1,1,2.59-3.28l22.09,17.42a2.09,2.09,0,0,1-1.15,3.73Z" style="fill:#e6e6e6"/></g><g style="opacity:0.5"><path d="M123.12,381.54a10.3,10.3,0,0,1,.88,14.52,2.09,2.09,0,1,1-3.13-2.78,6.1,6.1,0,0,0-9.13-8.08,2.09,2.09,0,0,1-3.14-2.77A10.29,10.29,0,0,1,123.12,381.54Z" style="fill:#e6e6e6"/></g><path d="M176,406.57c1.92,3.93,17.93,7.92,18.7,3.46s-1.91-13-7.63-13.43S174.07,402.64,176,406.57Z" style="fill:#e6e6e6;fill-rule:evenodd;opacity:0.5"/><g style="opacity:0.5"><circle cx="153.36" cy="278.54" r="7.37" style="fill:#e6e6e6"/></g><g style="opacity:0.5"><path d="M108.19,244.88a11.18,11.18,0,1,1,11.18-11.18A11.18,11.18,0,0,1,108.19,244.88Zm0-18.17a7,7,0,1,0,7,7A7,7,0,0,0,108.19,226.71Z" style="fill:#e6e6e6"/></g><path d="M160.9,203.21c4.62,2,21.76-6.35,19.12-10.87s-11.39-10.1-16.76-6.2S156.27,201.16,160.9,203.21Z" style="fill:#e6e6e6;fill-rule:evenodd;opacity:0.5"/><ellipse cx="263.98" cy="38.81" rx="12.02" ry="13.11" transform="translate(35.98 177.41) rotate(-39.66)" style="fill:#51576b"/><path id="Shape" d="M211.08,75.8l2.1,2.54a1.46,1.46,0,0,0,1.17.45c7.51.22,14.93.79,22.39,1A7.69,7.69,0,0,0,242,78l10.44-9.75a131.71,131.71,0,0,1,14.13-11.46l6.53-4.58c.62-.51,1.18-1.11,1.8-1.63a11.63,11.63,0,0,0,3.33-6.25,15.43,15.43,0,0,0-1.49-10.12c-.44-.91-1-1.77-1.51-2.64l-1.59-1.92c-.65-.54-1.31-1.1-2-1.6a13.62,13.62,0,0,0-8-2.64,76,76,0,0,0-11.87.78c-3,.39-6.06.91-9.11,1.31A18.2,18.2,0,0,0,235.7,30a13.67,13.67,0,0,0-5.54,6.09,10.42,10.42,0,0,0-.35,8.16A13.53,13.53,0,0,0,234.3,51,6.85,6.85,0,0,0,238,52.41a4.92,4.92,0,0,1,.85.26,3.82,3.82,0,0,1-.56.7C233.39,57.38,215.93,71.89,211.08,75.8Zm18.34-10a1,1,0,0,1-.69-.45,1,1,0,0,1,.38-.71L243,53.15a3.7,3.7,0,0,1,2.33-.86l4-.07c3.9-.12,7.82-.3,11.74-.29a11.53,11.53,0,0,0,9-3.6,9.31,9.31,0,0,0,2.21-10.06,9.8,9.8,0,0,0-7-6.21,7.11,7.11,0,0,0-8.11,2.37,6.42,6.42,0,0,0-1.7,5.07c.52,5,6.31,7.52,9.5,5.61a5,5,0,0,0,2.85-4.58,1.37,1.37,0,0,0-.2-.65,1.42,1.42,0,0,0-1.6-.69,1.53,1.53,0,0,0-1.08,1.46,1.9,1.9,0,0,1-.56,1.35,2.85,2.85,0,0,1-3.67.2,4,4,0,0,1-.68-5.11A5.2,5.2,0,0,1,267.19,36a7,7,0,0,1,2.18,7.84,8.44,8.44,0,0,1-10.32,4.67,9.44,9.44,0,0,1-6.12-5.64,10.23,10.23,0,0,1-.13-9,9.93,9.93,0,0,1,4.14-4.08,11.24,11.24,0,0,1,10.58-.93,14.67,14.67,0,0,1,6.58,5.64,10.79,10.79,0,0,1,1.91,5,11.15,11.15,0,0,1-4.13,10.09c-3.08,2.56-9.14,3.79-12.2,6.32l-9.81,5.29c-1.6,1.35-.06,5.7-2.15,5.58-5.73-.24-11.49-.51-17.23-.79a3.87,3.87,0,0,1-1.07-.13Z" style="fill:#2a2e35"/><path d="M211.53,76.13a.75.75,0,0,1-.5-.51.77.77,0,0,1,.14-.7l8.75-8.22a107.79,107.79,0,0,1,10.65-8.79L238,52.52l14.19-.41h0c3-.08,6-.25,8.88-.18a11.56,11.56,0,0,0,9-3.6,9.25,9.25,0,0,0,2.21-10.06,9.85,9.85,0,0,0-7-6.21,7.14,7.14,0,0,0-8.09,2.36,6.39,6.39,0,0,0-1.7,5.07A6.86,6.86,0,0,0,265,45.1a5,5,0,0,0,2.85-4.58,1.34,1.34,0,0,0-.2-.65,1.43,1.43,0,0,0-1.6-.7,1.61,1.61,0,0,0-1.11,1.47A1.81,1.81,0,0,1,264.4,42a2.81,2.81,0,0,1-3.67.2,4,4,0,0,1-.69-5.1A5.23,5.23,0,0,1,267.2,36a7,7,0,0,1,2.19,7.84,8.43,8.43,0,0,1-10.32,4.67A9.36,9.36,0,0,1,253,42.92a10.26,10.26,0,0,1-.16-9,10.14,10.14,0,0,1,4.13-4A11.25,11.25,0,0,1,267.5,29a15,15,0,0,1,6.58,5.64,10.68,10.68,0,0,1,1.88,5,10.91,10.91,0,0,1-4.11,10.08c-1.36,1.13-5,3.34-8.81,5.68a78.37,78.37,0,0,0-19.6,16.88l-2.66,3.2a8,8,0,0,1-5.73,1.92c-5.77-.25-11.49-.5-17.24-.79h0l-6.28-.47Z" style="fill:#51576b"/><g style="opacity:0.5"><path d="M44.21,171A8.41,8.41,0,0,1,56,172.55a1.71,1.71,0,0,1-2.72,2.08,5,5,0,0,0-7.91,6.07,1.71,1.71,0,0,1-2.72,2.08A8.41,8.41,0,0,1,44.21,171Z" style="fill:#e6e6e6"/></g><path d="M14,103.31c4.62,2,21.75-6.35,19.11-10.87S21.69,82.35,16.32,86.25,9.33,101.26,14,103.31Z" style="fill:#e6e6e6;fill-rule:evenodd;opacity:0.5"/><g style="opacity:0.5"><circle cx="21.88" cy="34.21" r="7.37" style="fill:#e6e6e6"/></g><g style="opacity:0.5"><circle cx="270.63" cy="263.76" r="7.37" style="fill:#e6e6e6"/></g><g style="opacity:0.5"><path d="M310.78,249.71a2.1,2.1,0,0,1,.05-1.5l10.89-25.94a2.09,2.09,0,0,1,3.86,1.61l-10.89,26a2.09,2.09,0,0,1-2.74,1.11A2.06,2.06,0,0,1,310.78,249.71Z" style="fill:#e6e6e6"/></g><g style="opacity:0.5"><path d="M285.29,309.44a10.29,10.29,0,0,1,14.49-1.24,2.09,2.09,0,0,1-2.69,3.2,6.1,6.1,0,1,0-7.86,9.33,2.09,2.09,0,0,1-2.7,3.2A10.31,10.31,0,0,1,285.29,309.44Z" style="fill:#e6e6e6"/></g><path d="M326.39,185.16c4.62,2.05,21.76-6.34,19.12-10.87s-11.39-10.09-16.76-6.19S321.77,183.11,326.39,185.16Z" style="fill:#e6e6e6;fill-rule:evenodd;opacity:0.5"/><g style="opacity:0.5"><path d="M346.8,108.9A11.18,11.18,0,1,1,358,97.73,11.18,11.18,0,0,1,346.8,108.9Zm0-18.16a7,7,0,1,0,7,7A7,7,0,0,0,346.8,90.74Z" style="fill:#e6e6e6"/></g><g style="opacity:0.5"><path d="M335.43,27a2.13,2.13,0,0,1,.25-.63,2.09,2.09,0,0,1,2.88-.67l23.93,14.8A2.1,2.1,0,0,1,360.28,44L336.36,29.23A2.08,2.08,0,0,1,335.43,27Z" style="fill:#e6e6e6"/></g><g style="opacity:0.5"><path d="M117.89,273a8.42,8.42,0,0,1-3.12,11.47,1.71,1.71,0,1,1-1.7-3,5,5,0,0,0-5-8.66,1.71,1.71,0,1,1-1.7-3A8.41,8.41,0,0,1,117.89,273Z" style="fill:#e6e6e6"/></g><g style="opacity:0.5"><path d="M71.62,255.41a1.93,1.93,0,0,1-.44.51,2.1,2.1,0,0,1-3-.3L50.44,233.83a2.09,2.09,0,1,1,3.24-2.64L71.47,253A2.06,2.06,0,0,1,71.62,255.41Z" style="fill:#e6e6e6"/></g><path d="M123.16,197.11a19.78,19.78,0,0,1-31.06-16c0-.34,0-.67,0-1C94.82,186.43,103,199.94,123.16,197.11Z" style="fill:#db3d50;fill-rule:evenodd"/><g style="opacity:0.5"><path d="M220.87,354.3a1.82,1.82,0,0,1-.5-.46,2.08,2.08,0,0,1,.32-2.94l21.93-17.62a2.09,2.09,0,1,1,2.62,3.26l-21.93,17.62A2.09,2.09,0,0,1,220.87,354.3Z" style="fill:#e6e6e6"/></g><rect width="375" height="478" style="fill:none"/><rect width="375" height="478" style="fill:#fff;opacity:0.15"/></g></g></svg>