<?xml version="1.0" encoding="UTF-8"?>
<svg width="67px" height="50px" viewBox="0 0 67 50" version="1.1" xmlns="http://www.w3.org/2000/svg" xmlns:xlink="http://www.w3.org/1999/xlink">
    <!-- Generator: Sketch 53 (72520) - https://sketchapp.com -->
    <title>Group 41</title>
    <desc>Created with Sketch.</desc>
    <defs>
        <filter x="-25.0%" y="-35.9%" width="148.2%" height="171.8%" filterUnits="objectBoundingBox" id="filter-1">
            <feOffset dx="0" dy="2" in="SourceAlpha" result="shadowOffsetOuter1"></feOffset>
            <feGaussianBlur stdDeviation="2" in="shadowOffsetOuter1" result="shadowBlurOuter1"></feGaussianBlur>
            <feColorMatrix values="0 0 0 0 0   0 0 0 0 0   0 0 0 0 0  0 0 0 0.3 0" type="matrix" in="shadowBlurOuter1" result="shadowMatrixOuter1"></feColorMatrix>
            <feMerge>
                <feMergeNode in="shadowMatrixOuter1"></feMergeNode>
                <feMergeNode in="SourceGraphic"></feMergeNode>
            </feMerge>
        </filter>
        <path d="M26.6738723,0.804495868 C18.8815319,2.51821488 10.8163404,8.21990083 5.70485106,14.6332562 L5.70485106,14.6332562 C1.05685106,20.4289587 -1.18195745,26.8066116 1.34280851,31.3420165 L1.34280851,31.3420165 C1.65259574,31.9013554 2.03387234,32.4249917 2.48782979,32.9129256 L2.48782979,32.9129256 C10.803234,41.9099504 56.9972766,39.7094876 55.4721702,27.1172231 L55.4721702,27.1172231 C55.1397447,24.3800331 54.3283404,21.4310083 53.0999149,18.5129256 L53.0999149,18.5129256 C52.4934468,17.0610248 51.7904681,15.6222149 50.9802553,14.2167273 L50.9802553,14.2167273 C48.2755745,9.53970248 44.5235745,5.33871074 39.9828085,2.80502479 L39.9828085,2.80502479 C39.6003404,2.58961983 39.2083404,2.38730579 38.8163404,2.20879339 L38.8163404,2.20879339 C37.5164255,1.58995041 36.1581277,1.10201653 34.7533617,0.792595041 L34.7533617,0.792595041 C34.050383,0.625983471 33.3342979,0.506975207 32.5955745,0.447471074 L32.5955745,0.447471074 C31.9748085,0.383206612 31.3468936,0.348694215 30.7082553,0.348694215 L30.7082553,0.348694215 C29.4,0.348694215 28.0524255,0.492694215 26.6738723,0.804495868" id="path-2"></path>
        <radialGradient cx="77.54824%" cy="55.890714%" fx="77.54824%" fy="55.890714%" r="90.2992115%" gradientTransform="translate(0.775482,0.558907),scale(0.688886,1.000000),rotate(10.752311),scale(1.000000,0.833004),translate(-0.775482,-0.558907)" id="radialGradient-4">
            <stop stop-color="#D9F1FA" offset="0%"></stop>
            <stop stop-color="#AED8E5" offset="100%"></stop>
        </radialGradient>
        <path d="M0.538181818,3.19185455 C0.538181818,1.74312727 1.98909091,0.570181818 3.78060606,0.570181818 C5.57333333,0.570181818 7.02545455,1.74312727 7.02545455,3.19185455 C7.02545455,4.64058182 5.57333333,5.81469091 3.78060606,5.81469091 C1.98909091,5.81469091 0.538181818,4.64058182 0.538181818,3.19185455 Z" id="path-5"></path>
        <path d="M0.538181818,3.19185455 C0.538181818,1.74312727 1.98909091,0.570181818 3.78181818,0.570181818 C5.57333333,0.570181818 7.02545455,1.74312727 7.02545455,3.19185455 C7.02545455,4.64174545 5.57333333,5.81585455 3.78181818,5.81585455 C1.98909091,5.81585455 0.538181818,4.64174545 0.538181818,3.19185455 Z" id="path-7"></path>
        <polygon id="path-9" points="0.214545455 0.395151515 6.01939394 0.395151515 6.01939394 5.86181818 0.214545455 5.86181818"></polygon>
        <polygon id="path-11" points="0.721071074 0.0933333333 13.046757 0.0933333333 13.046757 6.36993939 0.721071074 6.36993939"></polygon>
        <path d="M0.721190083,0.0933333333 L13.0480661,0.0933333333 C13.0480661,3.55878788 10.2894545,6.36969697 6.8846281,6.36969697 C3.47980165,6.36969697 0.721190083,3.55878788 0.721190083,0.0933333333 Z" id="path-13"></path>
        <path d="M0.721190083,0.0933333333 L13.0480661,0.0933333333 C13.0480661,3.56 10.2882645,6.36969697 6.8846281,6.36969697 C3.47980165,6.36969697 0.721190083,3.56 0.721190083,0.0933333333 Z" id="path-15"></path>
        <path d="M0.0896969697,2.55418182 C1.15515152,4.1344 2.80363636,4.92218182 5.03030303,4.92218182 L5.03030303,4.92218182 C7.25818182,4.92218182 8.88121212,4.19141818 9.90666667,2.72872727 L9.90666667,2.72872727 C8.61090909,1.13687273 6.98666667,0.343272727 5.03030303,0.343272727 L5.03030303,0.343272727 C3.07393939,0.343272727 1.42545455,1.07985455 0.0896969697,2.55418182 L0.0896969697,2.55418182 Z" id="path-17"></path>
    </defs>
    <g id="Dashboard_Redesign" stroke="none" stroke-width="1" fill="none" fill-rule="evenodd">
        <g id="Dashboard_Explorations_posture" transform="translate(-22.000000, -62.000000)">
            <g id="Group-41" filter="url(#filter-1)" transform="translate(28.000000, 66.000000)">
                <g id="Group-3">
                    <mask id="mask-3" fill="white">
                        <use xlink:href="#path-2"></use>
                    </mask>
                    <g id="Clip-2"></g>
                    <path d="M26.6738723,0.804495868 C18.8815319,2.51821488 10.8163404,8.21990083 5.70485106,14.6332562 L5.70485106,14.6332562 C1.05685106,20.4289587 -1.18195745,26.8066116 1.34280851,31.3420165 L1.34280851,31.3420165 C1.65259574,31.9013554 2.03387234,32.4249917 2.48782979,32.9129256 L2.48782979,32.9129256 C10.803234,41.9099504 56.9972766,39.7094876 55.4721702,27.1172231 L55.4721702,27.1172231 C55.1397447,24.3800331 54.3283404,21.4310083 53.0999149,18.5129256 L53.0999149,18.5129256 C52.4934468,17.0610248 51.7904681,15.6222149 50.9802553,14.2167273 L50.9802553,14.2167273 C48.2755745,9.53970248 44.5235745,5.33871074 39.9828085,2.80502479 L39.9828085,2.80502479 C39.6003404,2.58961983 39.2083404,2.38730579 38.8163404,2.20879339 L38.8163404,2.20879339 C37.5164255,1.58995041 36.1581277,1.10201653 34.7533617,0.792595041 L34.7533617,0.792595041 C34.050383,0.625983471 33.3342979,0.506975207 32.5955745,0.447471074 L32.5955745,0.447471074 C31.9748085,0.383206612 31.3468936,0.348694215 30.7082553,0.348694215 L30.7082553,0.348694215 C29.4,0.348694215 28.0524255,0.492694215 26.6738723,0.804495868" id="Fill-1" fill="url(#radialGradient-4)" mask="url(#mask-3)"></path>
                </g>
                <path d="M26.4095687,0.463057092 C18.609676,2.19952119 10.5354752,7.97688194 5.42022443,14.4753576 C0.767719632,20.3479828 -1.47445136,26.8102821 1.05395423,31.4058826 C1.3640417,31.9726452 1.74568783,32.5032314 2.20008525,32.9976413 C10.5235487,42.1140778 56.7623621,39.8844097 55.2357776,27.1250162 C54.9030299,24.3514972 54.0908392,21.362126 52.8624158,18.4065194 C52.2541673,16.9353484 51.5505072,15.4762363 50.7395092,14.0533004 C48.032207,9.31420047 44.2765706,5.05745168 39.7314038,2.48893187 C39.3497576,2.27187386 38.9561851,2.06687463 38.5638051,1.88599295 C37.2626304,1.25893647 35.9030161,0.764526553 34.4968886,0.450998314 C33.7920359,0.282175416 33.0764494,0.161587631 32.3370101,0.101293739 C31.7156425,0.0349704575 31.087119,0 30.4490544,0 C29.1371458,0 27.789458,0.147117097 26.4095687,0.463057092" id="Stroke-4" stroke="#FFFFFF" stroke-width="3" stroke-linecap="round" stroke-linejoin="bevel"></path>
                <g id="Group-14" transform="translate(14.545455, 14.545455)">
                    <path d="M3.78133333,0.569716364 C5.57406061,0.569716364 7.02618182,1.74382545 7.02618182,3.19255273 C7.02618182,4.64128 5.57406061,5.81538909 3.78133333,5.81538909 C1.98860606,5.81538909 0.536484848,4.64128 0.536484848,3.19255273 C0.536484848,1.74382545 1.98860606,0.569716364 3.78133333,0.569716364" id="Fill-6" fill="#ED9894"></path>
                    <g id="Group-10">
                        <mask id="mask-6" fill="white">
                            <use xlink:href="#path-5"></use>
                        </mask>
                        <g id="Clip-9"></g>
                        <polygon id="Fill-8" fill="#ED9894" mask="url(#mask-6)" points="-38.0569697 140.570764 84.8969697 140.570764 84.8969697 -69.2666182 -38.0569697 -69.2666182"></polygon>
                    </g>
                    <g id="Group-13">
                        <mask id="mask-8" fill="white">
                            <use xlink:href="#path-7"></use>
                        </mask>
                        <g id="Clip-12"></g>
                        <polygon id="Fill-11" fill="#ED9894" mask="url(#mask-8)" points="-1.17090909 7.45425455 8.73333333 7.45425455 8.73333333 -1.07054545 -1.17090909 -1.07054545"></polygon>
                    </g>
                </g>
                <g id="Group-17" transform="translate(45.818182, 13.818182)">
                    <mask id="mask-10" fill="white">
                        <use xlink:href="#path-9"></use>
                    </mask>
                    <g id="Clip-16"></g>
                    <path d="M6.02036364,4.79515152 C5.42763636,5.44969697 4.49309091,5.86181818 3.45066667,5.86181818 C1.65672727,5.86181818 0.21430303,4.63757576 0.21430303,3.12242424 C0.21430303,1.61939394 1.65672727,0.395151515 3.45066667,0.395151515 C3.59612121,0.395151515 3.72945455,0.407272727 3.864,0.419393939 C4.6870303,1.84969697 5.40218182,3.31636364 6.02036364,4.79515152" id="Fill-15" fill="#ED9894" mask="url(#mask-10)"></path>
                </g>
                <path d="M39.7862935,10.9090909 C39.6829898,10.9090909 39.5772555,10.8821315 39.4873205,10.8238992 C39.2564064,10.6772402 39.2041469,10.3925491 39.3682175,10.1876577 C40.1022812,9.27966558 40.9287105,8.79008312 41.8304907,8.73292922 C42.8246366,8.66930507 43.8734727,9.1427119 44.9478308,10.1380525 C45.1447154,10.3192195 45.1374234,10.6082242 44.9320314,10.782921 C44.7266394,10.9565394 44.4033597,10.9500692 44.2064751,10.7689021 C43.3545237,9.97953126 42.5803538,9.60102147 41.903411,9.64307811 C41.3224798,9.6786645 40.7500559,10.0409987 40.2043695,10.7182185 C40.1047119,10.8422316 39.946718,10.9090909 39.7862935,10.9090909" id="Fill-18" fill="#43349B"></path>
                <g id="Group-34" transform="translate(27.636364, 17.454545)">
                    <g id="Group-31">
                        <g id="Group-22">
                            <mask id="mask-12" fill="white">
                                <use xlink:href="#path-11"></use>
                            </mask>
                            <g id="Clip-21"></g>
                            <path d="M0.721071074,0.0923636364 L13.046757,0.0923636364 C13.046757,3.5590303 10.2893355,6.36993939 6.88450909,6.36993939 C3.47968264,6.36993939 0.721071074,3.5590303 0.721071074,0.0923636364" id="Fill-20" fill="#ED9894" mask="url(#mask-12)"></path>
                        </g>
                        <g id="Group-25">
                            <mask id="mask-14" fill="white">
                                <use xlink:href="#path-13"></use>
                            </mask>
                            <g id="Clip-24"></g>
                            <polygon id="Fill-23" fill="#ED9894" mask="url(#mask-14)" points="-35.2716694 104.549091 53.4787438 104.549091 53.4787438 -56.1527273 -35.2716694 -56.1527273"></polygon>
                        </g>
                        <g id="Group-30">
                            <mask id="mask-16" fill="white">
                                <use xlink:href="#path-15"></use>
                            </mask>
                            <g id="Clip-27"></g>
                            <polygon id="Fill-26" fill="#ED9894" mask="url(#mask-16)" points="-0.510545455 7.62545455 14.2821818 7.62545455 14.2821818 -1.16363636 -0.510545455 -1.16363636"></polygon>
                            <polygon id="Fill-28" fill="#ED9894" mask="url(#mask-16)" points="0.721190083 6.36969697 13.046876 6.36969697 13.046876 0.0921212121 0.721190083 0.0921212121"></polygon>
                            <polygon id="Fill-29" fill="#ED9894" mask="url(#mask-16)" points="-0.510545455 7.62545455 14.2821818 7.62545455 14.2821818 -1.16363636 -0.510545455 -1.16363636"></polygon>
                        </g>
                    </g>
                    <path d="M1.99136529,3.90387879 C3.30521653,2.36690909 4.92253884,1.59963636 6.84214215,1.59963636 C8.76293554,1.59963636 10.3576463,2.42751515 11.6322248,4.08448485 C10.6242248,5.60812121 9.02951405,6.36933333 6.84214215,6.36933333 C4.65596033,6.36933333 3.03863802,5.54872727 1.99136529,3.90387879" id="Fill-32" fill="#ED9894"></path>
                </g>
                <g id="Group-38" transform="translate(29.090909, 18.909091)">
                    <mask id="mask-18" fill="white">
                        <use xlink:href="#path-17"></use>
                    </mask>
                    <g id="Clip-36"></g>
                    <polygon id="Fill-35" fill="#ED9894" mask="url(#mask-18)" points="-37.8642424 99.1744 52.529697 99.1744 52.529697 -55.0993455 -37.8642424 -55.0993455"></polygon>
                    <polygon id="Fill-37" fill="#ED9894" mask="url(#mask-18)" points="-1.16727273 6.12770909 11.1612121 6.12770909 11.1612121 -0.863418182 -1.16727273 -0.863418182"></polygon>
                </g>
                <path d="M23.7863739,10.9090909 C23.6818385,10.9090909 23.5773032,10.8821315 23.4873541,10.8238992 C23.2564039,10.6772402 23.2041362,10.3925491 23.3682324,10.1876577 C24.1024111,9.27966558 24.9289698,8.79008312 25.8321067,8.73292922 C26.8264082,8.66930507 27.8729774,9.1427119 28.9487193,10.1380525 C29.1444192,10.3192195 29.1371261,10.6082242 28.9329174,10.782921 C28.7274933,10.9565394 28.4029474,10.9500692 28.2072475,10.7689021 C27.3551627,9.97953126 26.5808717,9.60102147 25.9038228,9.64307811 C25.3240162,9.6786645 24.7502872,10.0409987 24.2045154,10.7182185 C24.1036266,10.8422316 23.945608,10.9090909 23.7863739,10.9090909" id="Fill-39" fill="#43349B"></path>
            </g>
        </g>
    </g>
</svg>